<svg width="262" height="32" fill="none" xmlns="http://www.w3.org/2000/svg"><path d="M135.64 20.704V19.52h-7.68v1.184h7.68ZM143.394 18h1.28V6.16h-1.28v4.928h-.064c-.528-1.008-1.392-1.536-2.544-1.536-2.016 0-3.232 1.616-3.232 4.32s1.216 4.32 3.232 4.32c1.152 0 2.016-.528 2.544-1.536h.064V18Zm-2.112-.944c-1.488 0-2.352-.992-2.352-2.48v-1.408c0-1.488.864-2.48 2.352-2.48 1.136 0 2.112.592 2.112 1.696v2.976c0 1.104-.976 1.696-2.112 1.696Zm9.706 1.136c2.32 0 3.744-1.696 3.744-4.32 0-2.624-1.424-4.32-3.744-4.32-2.32 0-3.745 1.696-3.745 4.32 0 2.624 1.425 4.32 3.745 4.32Zm0-1.104c-1.424 0-2.384-.848-2.384-2.624V13.28c0-1.776.96-2.624 2.384-2.624s2.384.848 2.384 2.624v1.184c0 1.776-.96 2.624-2.384 2.624Zm9.881 1.104c1.648 0 2.688-.816 3.168-1.92l-.912-.624c-.416.896-1.136 1.44-2.24 1.44-1.552 0-2.384-1.056-2.384-2.512v-1.408c0-1.456.848-2.512 2.352-2.512 1.024 0 1.728.496 2.032 1.344l1.024-.544c-.464-1.12-1.456-1.904-3.056-1.904-2.336 0-3.728 1.696-3.728 4.32 0 2.608 1.376 4.32 3.744 4.32ZM172.127 18h1.28V9.744h-1.28v5.728c0 1.088-1.024 1.584-2.048 1.584-1.264 0-1.952-.736-1.952-2.24V9.744h-1.28v5.296c0 2 1.136 3.152 2.864 3.152 1.36 0 2-.72 2.352-1.536h.064V18Zm4.89 0v-6.064c0-.88.48-1.328 1.168-1.328.752 0 .992.464.992 1.872V18h1.184v-6.064c0-.88.48-1.328 1.152-1.328.768 0 1.008.464 1.008 1.872V18h1.184v-5.728c0-1.744-.352-2.72-1.696-2.72-.976 0-1.488.544-1.792 1.296h-.048c-.096-.768-.56-1.296-1.504-1.296-.912 0-1.328.512-1.584 1.152h-.064v-.96h-1.184V18h1.184Zm12.49.192c1.632 0 2.816-.8 3.312-1.904l-.944-.64c-.432.896-1.264 1.44-2.368 1.44-1.552 0-2.528-1.056-2.528-2.512v-.384h6.112v-.608c0-2.336-1.44-4.032-3.664-4.032-2.24 0-3.792 1.696-3.792 4.336 0 2.608 1.504 4.304 3.872 4.304Zm-.08-7.584c1.36 0 2.288.992 2.288 2.448v.176h-4.736v-.112c0-1.44 1.04-2.512 2.448-2.512ZM197.004 18v-5.728c0-1.088 1.024-1.584 2.048-1.584 1.264 0 1.952.736 1.952 2.24V18h1.28v-5.296c0-2-1.136-3.152-2.864-3.152-1.36 0-2 .72-2.352 1.536h-.064V9.744h-1.28V18h1.28Zm15.162 0v-1.088h-3.76v-6.08h3.76V9.744h-3.76V6.832h-1.232v2.16c0 .56-.208.752-.752.752h-2.048v1.088h2.752v5.28c0 1.104.576 1.888 1.824 1.888h3.216Zm9.978 0v-1.12h-1.152v-4.544c0-1.744-1.232-2.784-3.168-2.784-1.68 0-2.736.8-3.152 1.664l.864.64c.432-.752 1.104-1.216 2.208-1.216 1.248 0 1.968.624 1.968 1.824v.816h-1.76c-2.48 0-3.552.88-3.552 2.4 0 1.552 1.104 2.512 2.832 2.512 1.344 0 2.128-.592 2.48-1.536h.08c.096.768.48 1.344 1.472 1.344h.88Zm-4.688-.88c-1.056 0-1.712-.448-1.712-1.296v-.336c0-.8.688-1.248 2.208-1.248h1.76v1.36c0 .848-.944 1.52-2.256 1.52Zm13.898.88v-1.088h-3.76v-6.08h3.76V9.744h-3.76V6.832h-1.232v2.16c0 .56-.208.752-.752.752h-2.048v1.088h2.752v5.28c0 1.104.576 1.888 1.824 1.888h3.216Zm6.489-10.08c.736 0 1.008-.352 1.008-.816v-.256c0-.464-.272-.816-1.008-.816s-1.008.352-1.008.816v.256c0 .464.272.816 1.008.816ZM234.227 18h7.04v-1.088h-2.784V9.744h-4.256v1.088h2.976v6.08h-2.976V18Zm12.698.192c2.32 0 3.744-1.696 3.744-4.32 0-2.624-1.424-4.32-3.744-4.32-2.32 0-3.744 1.696-3.744 4.32 0 2.624 1.424 4.32 3.744 4.32Zm0-1.104c-1.424 0-2.384-.848-2.384-2.624V13.28c0-1.776.96-2.624 2.384-2.624s2.384.848 2.384 2.624v1.184c0 1.776-.96 2.624-2.384 2.624Zm7.642.912v-5.728c0-1.088 1.024-1.584 2.048-1.584 1.264 0 1.952.736 1.952 2.24V18h1.28v-5.296c0-2-1.136-3.152-2.864-3.152-1.36 0-2 .72-2.352 1.536h-.064V9.744h-1.28V18h1.28ZM42.877 10.002c.033 0 .064.014.087.037a.127.127 0 0 1 .036.089v5.196C43 17.786 41.49 19 39.5 19S36 17.786 36 15.324v-5.199c0-.033.013-.065.036-.088a.121.121 0 0 1 .087-.037h1.182c.032 0 .064.013.087.037a.127.127 0 0 1 .035.088v5.107c0 1.719.879 2.4 2.08 2.4 1.2 0 2.068-.681 2.068-2.4v-5.107c0-.033.013-.065.036-.088a.121.121 0 0 1 .087-.037l1.18.002ZM65 14.5c-.012 2.56-1.96 4.5-4.5 4.5S56 17.06 56 14.5s1.96-4.5 4.5-4.5 4.488 1.94 4.5 4.5Zm-7.587 0c0 1.814 1.327 3.157 3.087 3.157 1.76 0 3.073-1.343 3.073-3.157s-1.326-3.156-3.073-3.156c-1.747 0-3.087 1.342-3.087 3.156ZM78.448 18.995h-1.32a.136.136 0 0 1-.105-.056.125.125 0 0 1-.015-.115l3.486-8.704a.188.188 0 0 1 .07-.087.199.199 0 0 1 .11-.033h1.649c.04 0 .077.011.11.033a.187.187 0 0 1 .07.087l3.49 8.709a.124.124 0 0 1-.016.115.132.132 0 0 1-.105.056h-1.323a.135.135 0 0 1-.073-.023.128.128 0 0 1-.048-.059l-2.811-7.166a.128.128 0 0 0-.049-.056.135.135 0 0 0-.144 0 .128.128 0 0 0-.049.056l-2.811 7.166a.134.134 0 0 1-.116.077ZM26.449 18.995h-1.32a.136.136 0 0 1-.106-.056.125.125 0 0 1-.015-.115l3.488-8.704a.187.187 0 0 1 .07-.087.198.198 0 0 1 .11-.033h1.65c.04 0 .077.011.11.033a.189.189 0 0 1 .071.087l3.485 8.709a.124.124 0 0 1-.015.115.131.131 0 0 1-.105.056h-1.32a.135.135 0 0 1-.074-.023.13.13 0 0 1-.048-.059l-2.812-7.171a.129.129 0 0 0-.048-.056.136.136 0 0 0-.145 0 .13.13 0 0 0-.049.056l-2.812 7.166a.127.127 0 0 1-.046.057.135.135 0 0 1-.07.025ZM74.976 18.794l-2.505-3.228c1.414-.27 2.24-1.235 2.24-2.712 0-1.698-1.094-2.854-3.034-2.854h-3.491a.188.188 0 0 0-.186.188c0 .318.125.624.349.849.223.225.525.351.841.351h2.339c1.17 0 1.731.604 1.731 1.478 0 .875-.548 1.491-1.731 1.491h-3.343a.188.188 0 0 0-.186.188v4.327c0 .034.013.067.037.09a.126.126 0 0 0 .09.038h1.19a.126.126 0 0 0 .09-.037.128.128 0 0 0 .037-.09V15.64h1.376l2.176 2.865a1.24 1.24 0 0 0 .982.49h.906a.127.127 0 0 0 .115-.14.128.128 0 0 0-.023-.062ZM53.976 18.794l-2.505-3.228c1.414-.27 2.242-1.235 2.242-2.712 0-1.698-1.095-2.854-3.035-2.854h-3.492a.188.188 0 0 0-.186.188c0 .318.126.623.349.848.223.226.526.352.841.353h2.339c1.172 0 1.732.603 1.732 1.477 0 .875-.547 1.491-1.732 1.491h-3.343a.188.188 0 0 0-.186.188v4.327c0 .034.013.067.037.09a.126.126 0 0 0 .09.038h1.192a.128.128 0 0 0 .127-.128v-3.231h1.374l2.176 2.865a1.243 1.243 0 0 0 .982.49h.906a.127.127 0 0 0 .115-.14.128.128 0 0 0-.023-.062Z" fill="#101820"/><path d="M10.5 6.451a2.1 2.1 0 0 1 1.888 1.167l5.937 11.875a2.11 2.11 0 0 1-1.888 3.056H4.563a2.111 2.111 0 0 1-1.888-3.056L8.612 7.618A2.1 2.1 0 0 1 10.5 6.45ZM10.5 5a3.562 3.562 0 0 0-3.186 1.969L1.376 18.844A3.563 3.563 0 0 0 4.563 24h11.874a3.561 3.561 0 0 0 3.187-5.156L13.686 6.969A3.562 3.562 0 0 0 10.5 5Z" fill="#70D44B"/></svg>