<svg width="424" height="32" fill="none" xmlns="http://www.w3.org/2000/svg"><path d="M281.72 22.042V20.71h-8.64v1.332h8.64ZM290.443 19h1.44V5.68h-1.44v5.544h-.072c-.594-1.134-1.566-1.728-2.862-1.728-2.268 0-3.636 1.818-3.636 4.86 0 3.042 1.368 4.86 3.636 4.86 1.296 0 2.268-.594 2.862-1.728h.072V19Zm-2.376-1.062c-1.674 0-2.646-1.116-2.646-2.79v-1.584c0-1.674.972-2.79 2.646-2.79 1.278 0 2.376.666 2.376 1.908v3.348c0 1.242-1.098 1.908-2.376 1.908Zm10.919 1.278c2.61 0 4.212-1.908 4.212-4.86 0-2.952-1.602-4.86-4.212-4.86-2.61 0-4.212 1.908-4.212 4.86 0 2.952 1.602 4.86 4.212 4.86Zm0-1.242c-1.602 0-2.682-.954-2.682-2.952V13.69c0-1.998 1.08-2.952 2.682-2.952 1.602 0 2.682.954 2.682 2.952v1.332c0 1.998-1.08 2.952-2.682 2.952Zm11.117 1.242c1.854 0 3.024-.918 3.564-2.16l-1.026-.702c-.468 1.008-1.278 1.62-2.52 1.62-1.746 0-2.682-1.188-2.682-2.826v-1.584c0-1.638.954-2.826 2.646-2.826 1.152 0 1.944.558 2.286 1.512l1.152-.612c-.522-1.26-1.638-2.142-3.438-2.142-2.628 0-4.194 1.908-4.194 4.86 0 2.934 1.548 4.86 4.212 4.86ZM322.768 19h1.44V9.712h-1.44v6.444c0 1.224-1.152 1.782-2.304 1.782-1.422 0-2.196-.828-2.196-2.52V9.712h-1.44v5.958c0 2.25 1.278 3.546 3.222 3.546 1.53 0 2.25-.81 2.646-1.728h.072V19Zm5.501 0v-6.822c0-.99.54-1.494 1.314-1.494.846 0 1.116.522 1.116 2.106V19h1.332v-6.822c0-.99.54-1.494 1.296-1.494.864 0 1.134.522 1.134 2.106V19h1.332v-6.444c0-1.962-.396-3.06-1.908-3.06-1.098 0-1.674.612-2.016 1.458h-.054c-.108-.864-.63-1.458-1.692-1.458-1.026 0-1.494.576-1.782 1.296h-.072v-1.08h-1.332V19h1.332Zm14.051.216c1.836 0 3.168-.9 3.726-2.142l-1.062-.72c-.486 1.008-1.422 1.62-2.664 1.62-1.746 0-2.844-1.188-2.844-2.826v-.432h6.876v-.684c0-2.628-1.62-4.536-4.122-4.536-2.52 0-4.266 1.908-4.266 4.878 0 2.934 1.692 4.842 4.356 4.842Zm-.09-8.532c1.53 0 2.574 1.116 2.574 2.754v.198h-5.328v-.126c0-1.62 1.17-2.826 2.754-2.826ZM350.755 19v-6.444c0-1.224 1.152-1.782 2.304-1.782 1.422 0 2.196.828 2.196 2.52V19h1.44v-5.958c0-2.25-1.278-3.546-3.222-3.546-1.53 0-2.25.81-2.646 1.728h-.072V9.712h-1.44V19h1.44Zm17.057 0v-1.224h-4.23v-6.84h4.23V9.712h-4.23V6.436h-1.386v2.43c0 .63-.234.846-.846.846h-2.304v1.224h3.096v5.94c0 1.242.648 2.124 2.052 2.124h3.618Zm11.225 0v-1.26h-1.296v-5.112c0-1.962-1.386-3.132-3.564-3.132-1.89 0-3.078.9-3.546 1.872l.972.72c.486-.846 1.242-1.368 2.484-1.368 1.404 0 2.214.702 2.214 2.052v.918h-1.98c-2.79 0-3.996.99-3.996 2.7 0 1.746 1.242 2.826 3.186 2.826 1.512 0 2.394-.666 2.79-1.728h.09c.108.864.54 1.512 1.656 1.512h.99Zm-5.274-.99c-1.188 0-1.926-.504-1.926-1.458v-.378c0-.9.774-1.404 2.484-1.404h1.98v1.53c0 .954-1.062 1.71-2.538 1.71Zm15.635.99v-1.224h-4.23v-6.84h4.23V9.712h-4.23V6.436h-1.386v2.43c0 .63-.234.846-.846.846h-2.304v1.224h3.096v5.94c0 1.242.648 2.124 2.052 2.124h3.618Zm7.301-11.34c.828 0 1.134-.396 1.134-.918v-.288c0-.522-.306-.918-1.134-.918-.828 0-1.134.396-1.134.918v.288c0 .522.306.918 1.134.918ZM392.631 19h7.92v-1.224h-3.132V9.712h-4.788v1.224h3.348v6.84h-3.348V19Zm14.285.216c2.61 0 4.212-1.908 4.212-4.86 0-2.952-1.602-4.86-4.212-4.86-2.61 0-4.212 1.908-4.212 4.86 0 2.952 1.602 4.86 4.212 4.86Zm0-1.242c-1.602 0-2.682-.954-2.682-2.952V13.69c0-1.998 1.08-2.952 2.682-2.952 1.602 0 2.682.954 2.682 2.952v1.332c0 1.998-1.08 2.952-2.682 2.952ZM415.513 19v-6.444c0-1.224 1.152-1.782 2.304-1.782 1.422 0 2.196.828 2.196 2.52V19h1.44v-5.958c0-2.25-1.278-3.546-3.222-3.546-1.53 0-2.25.81-2.646 1.728h-.072V9.712h-1.44V19h1.44ZM42.877 10.002c.033 0 .064.014.087.037a.127.127 0 0 1 .036.089v5.196C43 17.786 41.49 19 39.5 19S36 17.786 36 15.324v-5.199c0-.033.013-.065.036-.088a.121.121 0 0 1 .087-.037h1.182c.032 0 .064.013.087.037a.127.127 0 0 1 .035.088v5.107c0 1.719.879 2.4 2.08 2.4 1.2 0 2.068-.681 2.068-2.4v-5.107c0-.033.013-.065.036-.088a.121.121 0 0 1 .087-.037l1.18.002ZM65 14.5c-.012 2.56-1.96 4.5-4.5 4.5S56 17.06 56 14.5s1.96-4.5 4.5-4.5 4.488 1.94 4.5 4.5Zm-7.587 0c0 1.814 1.327 3.157 3.087 3.157 1.76 0 3.073-1.343 3.073-3.157s-1.326-3.156-3.073-3.156c-1.747 0-3.087 1.342-3.087 3.156ZM78.448 18.995h-1.32a.136.136 0 0 1-.105-.056.125.125 0 0 1-.015-.115l3.486-8.704a.188.188 0 0 1 .07-.087.199.199 0 0 1 .11-.033h1.649c.04 0 .077.011.11.033a.187.187 0 0 1 .07.087l3.49 8.709a.124.124 0 0 1-.016.115.132.132 0 0 1-.105.056h-1.323a.135.135 0 0 1-.073-.023.128.128 0 0 1-.048-.059l-2.811-7.166a.128.128 0 0 0-.049-.056.135.135 0 0 0-.144 0 .128.128 0 0 0-.049.056l-2.811 7.166a.134.134 0 0 1-.116.077ZM26.449 18.995h-1.32a.136.136 0 0 1-.106-.056.125.125 0 0 1-.015-.115l3.488-8.704a.187.187 0 0 1 .07-.087.198.198 0 0 1 .11-.033h1.65c.04 0 .077.011.11.033a.189.189 0 0 1 .071.087l3.485 8.709a.124.124 0 0 1-.015.115.131.131 0 0 1-.105.056h-1.32a.135.135 0 0 1-.074-.023.13.13 0 0 1-.048-.059l-2.812-7.171a.129.129 0 0 0-.048-.056.136.136 0 0 0-.145 0 .13.13 0 0 0-.049.056l-2.812 7.166a.127.127 0 0 1-.046.057.135.135 0 0 1-.07.025ZM74.976 18.794l-2.505-3.228c1.414-.27 2.24-1.235 2.24-2.712 0-1.698-1.094-2.854-3.034-2.854h-3.491a.188.188 0 0 0-.186.188c0 .318.125.624.349.849.223.225.525.351.841.351h2.339c1.17 0 1.731.604 1.731 1.478 0 .875-.548 1.491-1.731 1.491h-3.343a.188.188 0 0 0-.186.188v4.327c0 .034.013.067.037.09a.126.126 0 0 0 .09.038h1.19a.126.126 0 0 0 .09-.037.128.128 0 0 0 .037-.09V15.64h1.376l2.176 2.865a1.24 1.24 0 0 0 .982.49h.906a.127.127 0 0 0 .115-.14.128.128 0 0 0-.023-.062ZM53.976 18.794l-2.505-3.228c1.414-.27 2.242-1.235 2.242-2.712 0-1.698-1.095-2.854-3.035-2.854h-3.492a.188.188 0 0 0-.186.188c0 .318.126.623.349.848.223.226.526.352.841.353h2.339c1.172 0 1.732.603 1.732 1.477 0 .875-.547 1.491-1.732 1.491h-3.343a.188.188 0 0 0-.186.188v4.327c0 .034.013.067.037.09a.126.126 0 0 0 .09.038h1.192a.128.128 0 0 0 .127-.128v-3.231h1.374l2.176 2.865a1.243 1.243 0 0 0 .982.49h.906a.127.127 0 0 0 .115-.14.128.128 0 0 0-.023-.062Z" fill="#FDFDFD"/><path d="M10.5 6.451a2.1 2.1 0 0 1 1.888 1.167l5.937 11.875a2.11 2.11 0 0 1-1.888 3.056H4.563a2.111 2.111 0 0 1-1.888-3.056L8.612 7.618A2.1 2.1 0 0 1 10.5 6.45ZM10.5 5a3.562 3.562 0 0 0-3.186 1.969L1.376 18.844A3.563 3.563 0 0 0 4.563 24h11.874a3.561 3.561 0 0 0 3.187-5.156L13.686 6.969A3.562 3.562 0 0 0 10.5 5Z" fill="#70D44B"/></svg>