<svg width="502" height="60" viewBox="0 0 502 60" fill="none" xmlns="http://www.w3.org/2000/svg">
<path d="M312.96 43.056V41.28H301.44V43.056H312.96ZM324.591 39H326.511V21.24H324.591V28.632H324.495C323.703 27.12 322.407 26.328 320.679 26.328C317.655 26.328 315.831 28.752 315.831 32.808C315.831 36.864 317.655 39.288 320.679 39.288C322.407 39.288 323.703 38.496 324.495 36.984H324.591V39ZM321.423 37.584C319.191 37.584 317.895 36.096 317.895 33.864V31.752C317.895 29.52 319.191 28.032 321.423 28.032C323.127 28.032 324.591 28.92 324.591 30.576V35.04C324.591 36.696 323.127 37.584 321.423 37.584ZM335.981 39.288C339.461 39.288 341.597 36.744 341.597 32.808C341.597 28.872 339.461 26.328 335.981 26.328C332.501 26.328 330.365 28.872 330.365 32.808C330.365 36.744 332.501 39.288 335.981 39.288ZM335.981 37.632C333.845 37.632 332.405 36.36 332.405 33.696V31.92C332.405 29.256 333.845 27.984 335.981 27.984C338.117 27.984 339.557 29.256 339.557 31.92V33.696C339.557 36.36 338.117 37.632 335.981 37.632ZM350.804 39.288C353.276 39.288 354.836 38.064 355.556 36.408L354.188 35.472C353.564 36.816 352.484 37.632 350.828 37.632C348.5 37.632 347.252 36.048 347.252 33.864V31.752C347.252 29.568 348.524 27.984 350.78 27.984C352.316 27.984 353.372 28.728 353.828 30L355.364 29.184C354.668 27.504 353.18 26.328 350.78 26.328C347.276 26.328 345.188 28.872 345.188 32.808C345.188 36.72 347.252 39.288 350.804 39.288ZM367.691 39H369.611V26.616H367.691V35.208C367.691 36.84 366.155 37.584 364.618 37.584C362.723 37.584 361.691 36.48 361.691 34.224V26.616H359.771V34.56C359.771 37.56 361.475 39.288 364.067 39.288C366.107 39.288 367.067 38.208 367.595 36.984H367.691V39ZM375.025 39V29.904C375.025 28.584 375.745 27.912 376.777 27.912C377.905 27.912 378.265 28.608 378.265 30.72V39H380.041V29.904C380.041 28.584 380.761 27.912 381.769 27.912C382.921 27.912 383.281 28.608 383.281 30.72V39H385.057V30.408C385.057 27.792 384.529 26.328 382.513 26.328C381.049 26.328 380.281 27.144 379.825 28.272H379.753C379.609 27.12 378.913 26.328 377.497 26.328C376.129 26.328 375.505 27.096 375.121 28.056H375.025V26.616H373.249V39H375.025ZM393.76 39.288C396.208 39.288 397.984 38.088 398.728 36.432L397.312 35.472C396.664 36.816 395.416 37.632 393.76 37.632C391.432 37.632 389.968 36.048 389.968 33.864V33.288H399.136V32.376C399.136 28.872 396.976 26.328 393.64 26.328C390.28 26.328 387.952 28.872 387.952 32.832C387.952 36.744 390.208 39.288 393.76 39.288ZM393.64 27.912C395.68 27.912 397.072 29.4 397.072 31.584V31.848H389.968V31.68C389.968 29.52 391.528 27.912 393.64 27.912ZM405.006 39V30.408C405.006 28.776 406.542 28.032 408.078 28.032C409.974 28.032 411.006 29.136 411.006 31.392V39H412.926V31.056C412.926 28.056 411.222 26.328 408.63 26.328C406.59 26.328 405.63 27.408 405.102 28.632H405.006V26.616H403.086V39H405.006ZM427.749 39V37.368H422.109V28.248H427.749V26.616H422.109V22.248H420.261V25.488C420.261 26.328 419.949 26.616 419.133 26.616H416.061V28.248H420.189V36.168C420.189 37.824 421.053 39 422.925 39H427.749ZM442.716 39V37.32H440.988V30.504C440.988 27.888 439.14 26.328 436.236 26.328C433.716 26.328 432.132 27.528 431.508 28.824L432.804 29.784C433.452 28.656 434.46 27.96 436.116 27.96C437.988 27.96 439.068 28.896 439.068 30.696V31.92H436.428C432.708 31.92 431.1 33.24 431.1 35.52C431.1 37.848 432.756 39.288 435.348 39.288C437.364 39.288 438.54 38.4 439.068 36.984H439.188C439.332 38.136 439.908 39 441.396 39H442.716ZM435.684 37.68C434.1 37.68 433.116 37.008 433.116 35.736V35.232C433.116 34.032 434.148 33.36 436.428 33.36H439.068V35.4C439.068 36.672 437.652 37.68 435.684 37.68ZM456.53 39V37.368H450.89V28.248H456.53V26.616H450.89V22.248H449.042V25.488C449.042 26.328 448.73 26.616 447.914 26.616H444.842V28.248H448.97V36.168C448.97 37.824 449.834 39 451.706 39H456.53ZM466.265 23.88C467.369 23.88 467.777 23.352 467.777 22.656V22.272C467.777 21.576 467.369 21.048 466.265 21.048C465.161 21.048 464.753 21.576 464.753 22.272V22.656C464.753 23.352 465.161 23.88 466.265 23.88ZM460.841 39H471.401V37.368H467.225V26.616H460.841V28.248H465.305V37.368H460.841V39ZM479.888 39.288C483.368 39.288 485.504 36.744 485.504 32.808C485.504 28.872 483.368 26.328 479.888 26.328C476.408 26.328 474.271 28.872 474.271 32.808C474.271 36.744 476.408 39.288 479.888 39.288ZM479.888 37.632C477.752 37.632 476.312 36.36 476.312 33.696V31.92C476.312 29.256 477.752 27.984 479.888 27.984C482.024 27.984 483.464 29.256 483.464 31.92V33.696C483.464 36.36 482.024 37.632 479.888 37.632ZM491.35 39V30.408C491.35 28.776 492.886 28.032 494.422 28.032C496.318 28.032 497.35 29.136 497.35 31.392V39H499.27V31.056C499.27 28.056 497.566 26.328 494.974 26.328C492.934 26.328 491.974 27.408 491.446 28.632H491.35V26.616H489.43V39H491.35Z" fill="#FDFDFD"/>
<path d="M81.3647 22.6458C81.4196 22.6458 81.4722 22.6677 81.5109 22.7068C81.5497 22.7459 81.5715 22.7988 81.5715 22.8541V31.4958C81.5715 35.5916 79.0269 37.6104 75.672 37.6104C72.3171 37.6104 69.7725 35.5916 69.7725 31.4958V22.8499C69.7725 22.7947 69.7942 22.7417 69.833 22.7026C69.8718 22.6636 69.9243 22.6416 69.9792 22.6416H71.9719C72.0267 22.6416 72.0793 22.6636 72.118 22.7026C72.1568 22.7417 72.1786 22.7947 72.1786 22.8499V31.3437C72.1786 34.202 73.6586 35.3354 75.6823 35.3354C77.706 35.3354 79.1695 34.202 79.1695 31.3437V22.8499C79.1695 22.7947 79.1913 22.7417 79.23 22.7026C79.2688 22.6636 79.3214 22.6416 79.3762 22.6416L81.3647 22.6458Z" fill="#FDFDFD"/>
<path d="M116.293 30C116.272 34.3271 112.998 37.6063 108.725 37.6063C104.452 37.6063 101.157 34.3271 101.157 30C101.157 25.673 104.452 22.3938 108.725 22.3938C112.998 22.3938 116.272 25.673 116.293 30ZM103.534 30C103.534 33.0667 105.765 35.3355 108.725 35.3355C111.685 35.3355 113.893 33.0667 113.893 30C113.893 26.9334 111.662 24.6646 108.725 24.6646C105.788 24.6646 103.534 26.9334 103.534 30Z" fill="#FDFDFD"/>
<path d="M137.001 37.3541H134.934C134.901 37.3531 134.869 37.3443 134.841 37.3285C134.812 37.3126 134.787 37.2902 134.769 37.2629C134.751 37.2357 134.739 37.2044 134.735 37.1718C134.731 37.1391 134.735 37.1059 134.746 37.075L140.205 22.8625C140.227 22.8048 140.266 22.7553 140.316 22.7204C140.367 22.6854 140.427 22.6667 140.488 22.6666H143.07C143.131 22.6664 143.191 22.685 143.242 22.72C143.292 22.755 143.331 22.8047 143.353 22.8625L148.817 37.0833C148.828 37.1143 148.831 37.1474 148.827 37.1801C148.823 37.2128 148.812 37.244 148.793 37.2713C148.775 37.2985 148.75 37.321 148.722 37.3368C148.693 37.3527 148.661 37.3615 148.628 37.3625H146.557C146.516 37.3619 146.476 37.3489 146.442 37.3252C146.408 37.3014 146.382 37.2679 146.367 37.2291L141.964 25.527C141.948 25.4901 141.921 25.4586 141.888 25.4366C141.854 25.4145 141.815 25.4028 141.775 25.4028C141.735 25.4028 141.696 25.4145 141.662 25.4366C141.628 25.4586 141.602 25.4901 141.586 25.527L137.183 37.2291C137.167 37.2651 137.142 37.2959 137.11 37.3181C137.078 37.3402 137.04 37.3527 137.001 37.3541V37.3541Z" fill="#FDFDFD"/>
<path d="M54.3652 37.3541H52.2981C52.2655 37.3531 52.2335 37.3443 52.2049 37.3285C52.1762 37.3126 52.1517 37.2902 52.1334 37.2629C52.115 37.2357 52.1033 37.2044 52.0993 37.1718C52.0952 37.1391 52.0989 37.1059 52.11 37.075L57.5692 22.8625C57.5911 22.8047 57.6299 22.755 57.6805 22.72C57.7311 22.685 57.7911 22.6664 57.8524 22.6666H60.4342C60.4955 22.6667 60.5554 22.6854 60.6059 22.7204C60.6564 22.7553 60.6953 22.8048 60.7174 22.8625L66.1725 37.0833C66.1836 37.1143 66.1873 37.1474 66.1832 37.1801C66.1792 37.2128 66.1675 37.244 66.1491 37.2713C66.1308 37.2985 66.1063 37.321 66.0776 37.3368C66.049 37.3527 66.017 37.3615 65.9844 37.3625H63.9173C63.876 37.3619 63.8358 37.3489 63.8019 37.3252C63.768 37.3014 63.742 37.2679 63.7271 37.2291L59.3263 25.5187C59.3101 25.4817 59.2836 25.4503 59.25 25.4282C59.2164 25.4062 59.1772 25.3944 59.1371 25.3944C59.097 25.3944 59.0578 25.4062 59.0242 25.4282C58.9906 25.4503 58.9642 25.4817 58.948 25.5187L54.545 37.2208C54.5309 37.258 54.5064 37.2904 54.4745 37.314C54.4427 37.3377 54.4047 37.3516 54.3652 37.3541V37.3541Z" fill="#FDFDFD"/>
<path d="M130.934 37.0229L126.839 31.752C129.15 31.3104 130.502 29.7375 130.502 27.325C130.502 24.5541 128.712 22.6666 125.541 22.6666H119.836C119.755 22.6666 119.678 22.6989 119.621 22.7563C119.564 22.8138 119.532 22.8917 119.532 22.9729V22.9729C119.532 23.4928 119.737 23.9914 120.102 24.3591C120.467 24.7267 120.961 24.9333 121.477 24.9333H125.299C127.214 24.9333 128.129 25.9187 128.129 27.3458C128.129 28.7729 127.234 29.7791 125.299 29.7791H119.836C119.755 29.7791 119.678 29.8114 119.621 29.8688C119.564 29.9263 119.532 30.0041 119.532 30.0854V37.15C119.532 37.2052 119.554 37.2582 119.593 37.2973C119.632 37.3363 119.684 37.3583 119.739 37.3583H121.686C121.741 37.3583 121.794 37.3363 121.832 37.2973C121.871 37.2582 121.893 37.2052 121.893 37.15V31.875H124.142L127.697 36.552C127.886 36.8008 128.129 37.0024 128.408 37.1411C128.686 37.2799 128.993 37.352 129.303 37.352H130.783C130.82 37.349 130.855 37.3363 130.885 37.3151C130.915 37.294 130.939 37.2653 130.954 37.2318C130.969 37.1983 130.976 37.1613 130.972 37.1246C130.969 37.0879 130.956 37.0528 130.934 37.0229Z" fill="#FDFDFD"/>
<path d="M97.8748 37.0229L93.7799 31.752C96.0909 31.3104 97.4448 29.7375 97.4448 27.325C97.4448 24.5541 95.6547 22.6666 92.4838 22.6666H86.7765C86.6959 22.6666 86.6186 22.6989 86.5617 22.7563C86.5047 22.8138 86.4727 22.8917 86.4727 22.9729V22.9729C86.4732 23.4926 86.6783 23.991 87.043 24.3585C87.4076 24.726 87.9021 24.9327 88.4178 24.9333H92.2399C94.1561 24.9333 95.0718 25.9187 95.0718 27.3458C95.0718 28.7729 94.1767 29.7791 92.2399 29.7791H86.7765C86.6959 29.7791 86.6186 29.8114 86.5617 29.8688C86.5047 29.9263 86.4727 30.0041 86.4727 30.0854V37.15C86.4727 37.2052 86.4944 37.2582 86.5332 37.2973C86.572 37.3363 86.6245 37.3583 86.6794 37.3583H88.6286C88.6835 37.3583 88.736 37.3363 88.7748 37.2973C88.8136 37.2582 88.8354 37.2052 88.8354 37.15V31.875H91.0823L94.6377 36.552C94.8267 36.8005 95.0699 37.0018 95.3484 37.1405C95.6268 37.2792 95.9332 37.3516 96.2438 37.352H97.7239C97.7603 37.349 97.7953 37.3363 97.8253 37.3151C97.8553 37.294 97.8792 37.2653 97.8945 37.2318C97.9099 37.1983 97.9161 37.1613 97.9127 37.1246C97.9092 37.0879 97.8961 37.0528 97.8748 37.0229Z" fill="#FDFDFD"/>
<path d="M29.7666 17.2917C30.3811 17.2897 30.9838 17.4611 31.5066 17.7866C32.0294 18.1121 32.4513 18.5786 32.7246 19.1333L42.0265 37.8833C42.2789 38.3916 42.3981 38.9564 42.3729 39.5241C42.3476 40.0918 42.1788 40.6436 41.8824 41.1271C41.586 41.6106 41.1719 42.0096 40.6794 42.2864C40.1869 42.5631 39.6324 42.7084 39.0685 42.7083H20.4646C19.9007 42.7084 19.3462 42.5631 18.8537 42.2864C18.3612 42.0096 17.9471 41.6106 17.6507 41.1271C17.3543 40.6436 17.1855 40.0918 17.1603 39.5241C17.135 38.9564 17.2543 38.3916 17.5066 37.8833L26.8085 19.1333C27.0818 18.5786 27.5037 18.1121 28.0265 17.7866C28.5493 17.4611 29.1521 17.2897 29.7666 17.2917ZM29.7666 15C28.7302 14.9999 27.7142 15.2906 26.8325 15.8396C25.9508 16.3886 25.2382 17.1742 24.7745 18.1083L15.4726 36.8583C15.0469 37.716 14.8458 38.6691 14.8884 39.6271C14.9311 40.5851 15.216 41.5162 15.7162 42.332C16.2164 43.1478 16.9152 43.8211 17.7463 44.2881C18.5774 44.755 19.5131 45.0001 20.4646 45H39.0685C40.02 45.0001 40.9558 44.755 41.7868 44.2881C42.6179 43.8211 43.3167 43.1478 43.8169 42.332C44.3171 41.5162 44.6021 40.5851 44.6447 39.6271C44.6874 38.6691 44.4863 37.716 44.0606 36.8583L34.7586 18.1083C34.2949 17.1742 33.5823 16.3886 32.7006 15.8396C31.8189 15.2906 30.803 14.9999 29.7666 15V15Z" fill="#70D44B"/>
</svg>
