<svg xmlns="http://www.w3.org/2000/svg" width="3355" height="222"><path fill="#fff" d="M428.822 3.661a3.023 3.023 0 0 1 3.029 3.021v125.513c0 59.486-37.281 88.805-86.441 88.805-49.152 0-86.44-29.319-86.44-88.805V6.63a3.02 3.02 0 0 1 3.036-3.028h29.197a3.022 3.022 0 0 1 3.021 3.021v123.362c0 41.511 21.695 57.975 51.341 57.975 29.654 0 51.098-16.464 51.098-57.975V6.63a3.018 3.018 0 0 1 3.021-3.028l29.138.059Zm511.758 106.81c-.3 62.837-48.27 110.47-110.88 110.47-62.603 0-110.879-47.625-110.879-110.47S767.097 0 829.69 0c62.61 0 110.58 47.626 110.88 110.471h.01Zm-186.932 0c0 44.538 32.682 77.489 76.052 77.489 43.37 0 75.72-32.951 75.72-77.497 0-44.531-32.68-77.482-75.72-77.482s-76.052 32.951-76.052 77.49ZM1243.99 217.28h-30.28a3.05 3.05 0 0 1-2.42-1.324 3.037 3.037 0 0 1-.34-2.728l79.98-206.421a4.467 4.467 0 0 1 4.16-2.851h37.83a4.426 4.426 0 0 1 4.15 2.843l80.04 206.54c.33.912.2 1.928-.34 2.731a3.036 3.036 0 0 1-2.42 1.32h-30.34a3.036 3.036 0 0 1-2.79-1.937l-64.51-169.949a3.023 3.023 0 0 0-2.77-1.805c-1.2 0-2.29.708-2.77 1.805l-64.51 169.949a3.02 3.02 0 0 1-2.67 1.819v.008Zm-1210.775 0H2.928a3.03 3.03 0 0 1-2.749-4.052L80.164 6.807a4.422 4.422 0 0 1 4.149-2.851h37.826a4.45 4.45 0 0 1 4.149 2.843l79.926 206.54a3.02 3.02 0 0 1-2.756 4.051H173.17a3.027 3.027 0 0 1-2.785-1.937l-64.48-170.074a3.028 3.028 0 0 0-5.542 0l-64.51 169.949a3.026 3.026 0 0 1-2.638 1.944v.008Zm1121.885-4.811-59.99-76.554c33.86-6.409 53.66-29.26 53.66-64.296 0-40.244-26.23-67.656-72.68-67.656h-83.6a4.448 4.448 0 0 0-4.45 4.45c0 7.554 3.01 14.798 8.35 20.138a28.51 28.51 0 0 0 20.15 8.334h56c28.05 0 41.46 14.313 41.46 35.036 0 20.73-13.12 35.345-41.46 35.345h-80.05a4.444 4.444 0 0 0-4.45 4.442v102.603a3.03 3.03 0 0 0 3.03 3.028h28.53c1.67 0 3.02-1.352 3.02-3.021v-76.613h32.96l52.1 67.921a29.614 29.614 0 0 0 23.53 11.624h21.68a3.023 3.023 0 0 0 2.5-1.749c.46-.991.35-2.153-.29-3.039v.007Zm-484.378 0-59.992-76.554c33.861-6.409 53.699-29.26 53.699-64.296 0-40.244-26.234-67.656-72.689-67.656h-83.626a4.45 4.45 0 0 0-4.451 4.45c.021 15.722 12.769 28.46 28.497 28.472h56.006c28.076 0 41.488 14.313 41.488 35.036 0 20.73-13.117 35.345-41.488 35.345h-80.052a4.45 4.45 0 0 0-4.451 4.442v102.603a3.029 3.029 0 0 0 3.029 3.028h28.563a3.02 3.02 0 0 0 3.021-3.021v-76.613h32.926l52.1 67.921a29.724 29.724 0 0 0 23.53 11.624h21.68a3.027 3.027 0 0 0 2.21-4.788v.007Z"/><path fill="#5deb5a" d="M1592.18 96.825c1.33 1.603 4.44.725 4.44-1.36V37.656c0-1.104.9-2 2-2h17.57c1.1 0 2 .896 2 2V216c0 1.105-.9 2-2 2h-17.57c-1.1 0-2-.895-2-2v-6.789c0-2.065-3.01-2.933-4.33-1.343a36.428 36.428 0 0 1-10.08 8.491c-5.94 3.36-12.81 5.039-20.62 5.039-15.86 0-28.36-6.132-37.5-18.398-9.07-12.344-13.6-29.336-13.6-50.977 0-21.328 4.57-38.046 13.71-50.156 9.14-12.187 21.6-18.281 37.39-18.281 7.89 0 14.84 1.719 20.86 5.156a34.426 34.426 0 0 1 9.73 8.083Zm-58.95 55.667c0 16.719 2.65 29.336 7.97 37.852 5.31 8.515 13.16 12.773 23.55 12.773s18.28-4.297 23.67-12.89c5.47-8.594 8.2-21.172 8.2-37.735 0-16.64-2.73-29.219-8.2-37.734-5.39-8.594-13.28-12.891-23.67-12.891-10.39 0-18.24 4.258-23.55 12.774-5.32 8.515-7.97 21.132-7.97 37.851Zm179.65-50.625c-10.94 0-19.22 4.258-24.85 12.774-5.62 8.515-8.44 21.132-8.44 37.851 0 16.641 2.82 29.258 8.44 37.852 5.63 8.515 13.91 12.773 24.85 12.773 11.01 0 19.33-4.258 24.96-12.773 5.62-8.594 8.43-21.211 8.43-37.852 0-16.719-2.81-29.336-8.43-37.851-5.63-8.516-13.95-12.774-24.96-12.774Zm0-18.281c18.2 0 32.1 5.898 41.71 17.695 9.69 11.797 14.53 28.867 14.53 51.211 0 22.422-4.8 39.531-14.41 51.328-9.61 11.719-23.55 17.578-41.83 17.578-18.21 0-32.11-5.859-41.72-17.578-9.61-11.797-14.42-28.906-14.42-51.328 0-22.344 4.81-39.414 14.42-51.211 9.61-11.797 23.51-17.695 41.72-17.695Zm196.75 126.583c0 .713-.38 1.373-1 1.722-5.47 3.073-11.11 5.383-16.93 6.929a68.691 68.691 0 0 1-18.75 2.578c-20.31 0-36.21-6.093-47.69-18.281-11.41-12.187-17.11-29.062-17.11-50.625 0-21.562 5.7-38.437 17.11-50.625 11.48-12.187 27.38-18.281 47.69-18.281 6.33 0 12.5.82 18.52 2.461 5.68 1.549 11.39 3.899 17.14 7.049a1.98 1.98 0 0 1 1.02 1.736v16.99c0 1.727-2.06 2.661-3.41 1.591-4.58-3.617-9.18-6.333-13.81-8.147-5.71-2.266-12.19-3.399-19.46-3.399-13.51 0-23.9 4.375-31.17 13.125-7.26 8.75-10.9 21.25-10.9 37.5 0 16.172 3.64 28.672 10.9 37.5 7.34 8.75 17.74 13.125 31.17 13.125 7.5 0 14.22-1.133 20.16-3.398 4.6-1.815 8.94-4.379 13.02-7.693 1.36-1.109 3.5-.176 3.5 1.583v16.56Zm43.13-41.857V88.984c0-1.104.89-2 2-2h17.56c1.1 0 2 .896 2 2v79.328c0 11.797 2.07 20.469 6.21 26.016 4.22 5.547 10.7 8.32 19.45 8.32 10.16 0 17.93-3.554 23.32-10.664 5.4-7.187 8.09-17.461 8.09-30.82v-72.18c0-1.104.9-2 2-2h17.68c1.1 0 2 .896 2 2V216c0 1.105-.9 2-2 2h-17.68c-1.1 0-2-.895-2-2v-9.293c0-2.106-3.14-2.948-4.42-1.269-3.15 4.163-6.91 7.53-11.28 10.101-6.57 3.906-14.26 5.859-23.09 5.859-13.44 0-23.44-4.375-30-13.125-6.56-8.828-9.84-22.148-9.84-39.961Zm199.01-72.383c.85 1.53 3.24 1.606 4.16.118 2.24-3.603 4.87-6.389 7.88-8.359 4.14-2.735 9.1-4.102 14.89-4.102 10.54 0 17.96 4.102 22.26 12.305 4.38 8.125 6.56 23.476 6.56 46.054V216c0 1.105-.89 2-2 2h-15.68c-1.11 0-2-.895-2-2v-73.117c0-18.516-1.06-30-3.17-34.453-2.03-4.532-5.78-6.797-11.25-6.797-6.25 0-10.54 2.422-12.89 7.265-2.26 4.766-3.4 16.094-3.4 33.985V216c0 1.105-.89 2-2 2h-15.68c-1.11 0-2-.895-2-2v-73.117c0-18.75-1.14-30.313-3.4-34.688-2.19-4.375-6.17-6.562-11.96-6.562-5.7 0-9.68 2.422-11.95 7.265-2.19 4.766-3.28 16.094-3.28 33.985V216c0 1.105-.9 2-2 2h-15.57c-1.11 0-2-.895-2-2V88.75c0-1.105.89-2 2-2h15.57c1.1 0 2 .895 2 2v1.464c0 2.068 3.09 2.968 4.48 1.442a25.087 25.087 0 0 1 5.13-4.32c3.91-2.5 8.32-3.75 13.24-3.75 5.94 0 10.86 1.367 14.77 4.102 2.91 1.997 5.34 4.744 7.29 8.241Zm198.61 45.665v8.547c0 1.104-.9 2-2 2h-90.7c-.39 0-.7.314-.7.703-.63 17.89 2.77 30.742 10.19 38.554 7.5 7.813 18.05 11.719 31.64 11.719 6.88 0 14.07-1.094 21.57-3.281 6.63-1.934 13.65-4.753 21.08-8.458 1.34-.671 2.94.297 2.94 1.8v16.8c0 .812-.49 1.544-1.25 1.846-7.76 3.107-15.27 5.439-22.54 6.996-7.58 1.719-14.92 2.578-22.03 2.578-20.39 0-36.33-6.093-47.81-18.281-11.49-12.265-17.23-29.14-17.23-50.625 0-20.937 5.62-37.656 16.87-50.156s26.25-18.75 45-18.75c16.72 0 29.89 5.664 39.5 16.992 9.68 11.328 14.84 25 15.47 41.016Zm-23.78-6.325c1.18-.002 2.11-1.029 1.93-2.2-1.21-8.134-4.44-15.215-9.68-21.241-5.62-6.64-13.75-9.961-24.37-9.961-10.39 0-18.95 3.438-25.67 10.313-6.15 6.298-9.75 13.318-10.79 21.06-.16 1.153.77 2.141 1.93 2.139l66.65-.11Zm160.3 1.403V216c0 1.105-.9 2-2 2h-17.68c-1.11 0-2-.895-2-2v-79.328c0-11.797-2.07-20.469-6.21-26.016-4.14-5.547-10.63-8.32-19.46-8.32-10.07 0-17.85 3.594-23.32 10.781-5.39 7.11-8.08 17.344-8.08 30.703V216c0 1.105-.9 2-2 2h-17.56c-1.11 0-2-.895-2-2V88.75c0-1.105.89-2 2-2h17.56c1.1 0 2 .895 2 2v9.37c0 2.101 3.13 2.944 4.4 1.273 3.14-4.111 6.86-7.427 11.18-9.948 6.57-3.906 14.34-5.859 23.32-5.859 13.36 0 23.33 4.414 29.89 13.242 6.64 8.75 9.96 22.031 9.96 39.844Zm91.4-87.188c1.1 0 2 .896 2 2V84.75c0 1.105.89 2 2 2h44.98c1.11 0 2 .895 2 2v12.758c0 1.104-.89 2-2 2h-44.98c-1.11 0-2 .895-2 2v69.25c0 9.687 1.83 16.445 5.5 20.273 3.68 3.828 10.08 5.742 19.22 5.742h22.26c1.11 0 2 .896 2 2V216c0 1.105-.89 2-2 2h-24.37c-16.17 0-27.57-3.242-34.21-9.727-6.65-6.484-9.97-17.656-9.97-33.515v-69.25c0-1.105-.89-2-2-2h-31.03c-1.11 0-2-.896-2-2V88.75c0-1.105.89-2 2-2h31.03c1.11 0 2-.895 2-2V51.484c0-1.104.9-2 2-2h17.57Zm156.92 102.539h-7.15c-12.58 0-22.07 2.227-28.48 6.68-6.32 4.375-9.49 10.938-9.49 19.688 0 7.89 2.38 14.023 7.15 18.398 4.77 4.375 11.37 6.563 19.8 6.563 11.88 0 21.22-4.102 28.01-12.305 6.8-8.281 10.24-19.688 10.32-34.219v-2.805c0-1.104-.9-2-2-2h-18.16Zm41.83-8.906V216c0 1.105-.89 2-2 2h-17.67c-1.11 0-2-.895-2-2v-10.127c0-2.037-2.87-2.877-4.13-1.28-3.82 4.825-8.26 8.59-13.34 11.298-6.95 3.671-15.43 5.507-25.43 5.507-13.36 0-24.02-3.75-31.99-11.25-7.97-7.578-11.95-17.695-11.95-30.351 0-14.609 4.88-25.703 14.65-33.281 9.84-7.578 24.26-11.368 43.24-11.368h26.95c1.1 0 2-.895 2-2v-1.398c-.08-10.469-2.74-18.047-7.97-22.734-5.24-4.766-13.6-7.149-25.08-7.149-7.35 0-14.77 1.055-22.27 3.164-6.44 1.812-12.74 4.344-18.89 7.597-1.36.718-3.02-.25-3.02-1.785v-16.74c0-.829.51-1.573 1.29-1.863 7.5-2.803 14.69-4.906 21.56-6.31 7.34-1.563 14.45-2.344 21.33-2.344 10.86 0 20.12 1.602 27.77 4.805 7.74 3.203 13.99 8.007 18.75 14.414 2.97 3.906 5.08 8.75 6.33 14.531 1.25 5.703 1.87 14.297 1.87 25.781Zm90.47-93.633c1.1 0 2 .896 2 2V84.75c0 1.105.89 2 2 2h44.98c1.1 0 2 .895 2 2v12.758c0 1.104-.9 2-2 2h-44.98c-1.11 0-2 .895-2 2v69.25c0 9.687 1.83 16.445 5.5 20.273 3.68 3.828 10.08 5.742 19.22 5.742h22.26c1.1 0 2 .896 2 2V216c0 1.105-.9 2-2 2h-24.37c-16.17 0-27.58-3.242-34.22-9.727-6.64-6.484-9.96-17.656-9.96-33.515v-69.25c0-1.105-.89-2-2-2h-31.04c-1.1 0-2-.896-2-2V88.75c0-1.105.9-2 2-2h31.04c1.11 0 2-.895 2-2V51.484c0-1.104.9-2 2-2h17.57Zm111.68 39.735c0-1.105.9-2 2-2h51.2c1.1 0 2 .895 2 2v110.023c0 1.105.89 2 2 2h38.77c1.11 0 2 .896 2 2V216c0 1.105-.89 2-2 2h-103.11c-1.1 0-2-.895-2-2v-12.758c0-1.104.9-2 2-2h38.78c1.1 0 2-.895 2-2v-93.265c0-1.105-.9-2-2-2h-29.64c-1.1 0-2-.896-2-2V89.219Zm33.64-50.977c0-1.104.89-2 2-2h17.56c1.1 0 2 .896 2 2V61.43c0 1.104-.9 2-2 2h-17.56c-1.11 0-2-.896-2-2V38.242Zm146.13 63.625c-10.94 0-19.22 4.258-24.85 12.774-5.62 8.515-8.43 21.132-8.43 37.851 0 16.641 2.81 29.258 8.43 37.852 5.63 8.515 13.91 12.773 24.85 12.773 11.01 0 19.33-4.258 24.96-12.773 5.62-8.594 8.44-21.211 8.44-37.852 0-16.719-2.82-29.336-8.44-37.851-5.63-8.516-13.95-12.774-24.96-12.774Zm0-18.281c18.2 0 32.11 5.898 41.72 17.695 9.69 11.797 14.53 28.867 14.53 51.211 0 22.422-4.81 39.531-14.42 51.328-9.6 11.719-23.55 17.578-41.83 17.578-18.2 0-32.11-5.859-41.72-17.578-9.61-11.797-14.41-28.906-14.41-51.328 0-22.344 4.8-39.414 14.41-51.211 9.61-11.797 23.52-17.695 41.72-17.695Zm195.58 53.086V216c0 1.105-.89 2-2 2h-17.67c-1.11 0-2-.895-2-2v-79.328c0-11.797-2.08-20.469-6.22-26.016-4.14-5.547-10.62-8.32-19.45-8.32-10.08 0-17.85 3.594-23.32 10.781-5.39 7.11-8.09 17.344-8.09 30.703V216c0 1.105-.89 2-2 2h-17.56c-1.1 0-2-.895-2-2V88.75c0-1.105.9-2 2-2h17.56c1.11 0 2 .895 2 2v9.37c0 2.101 3.13 2.944 4.41 1.273 3.13-4.111 6.86-7.427 11.18-9.948 6.56-3.906 14.34-5.859 23.32-5.859 13.36 0 23.32 4.414 29.88 13.242 6.64 8.75 9.96 22.031 9.96 39.844Z"/></svg>