<svg width="1970" height="1377" fill="none" xmlns="http://www.w3.org/2000/svg"><g clip-path="url(#a)"><path d="m613.865 997.602.702 2.968 14.805-10.387-.541-2.289-17.891-2.646.686 2.896 3.573.51 1.637 6.913-2.971 2.035Zm4.188-8.563 6.839.971-5.684 3.911-1.155-4.882ZM618.034 1010.57c1.391 3.5 5.029 5.05 8.575 3.64l9.658-3.84-1.037-2.61-9.658 3.84c-2.074.82-4.229-.05-5.018-2.04-.788-1.98.179-4.1 2.253-4.92l9.658-3.84-1.037-2.607-9.657 3.837c-3.547 1.41-5.128 5.03-3.737 8.54ZM629.41 1032.65l3.859-7.48c1.558 1.38 3.687 1.57 5.709.42 2.439-1.39 3.172-4.52 1.781-6.96l-3.127-5.48-14.594 8.32 1.391 2.44 5.858-3.34 1.225 2.15-3.79 6.97 1.688 2.96Zm7.257-15.72 1.688 2.96c.69 1.21.367 2.58-.78 3.24-1.188.68-2.575.28-3.265-.93l-1.688-2.96 4.045-2.31ZM649.786 1031.54c-3-3.81-8.209-4.41-12.055-1.38-3.866 3.04-4.52 8.26-1.521 12.07 3 3.81 8.213 4.38 12.078 1.33 3.847-3.02 4.497-8.21 1.498-12.02Zm-2.15 1.69c1.975 2.51 1.491 6.01-1.13 8.07-2.639 2.08-6.171 1.75-8.146-.76-1.99-2.53-1.472-6.02 1.167-8.1 2.621-2.06 6.119-1.73 8.109.79ZM653.886 1060.45l1.513-8.27c1.892.86 3.985.43 5.584-1.27 1.928-2.04 1.718-5.24-.323-7.17l-4.588-4.33-11.537 12.21 2.041 1.93 4.631-4.9 1.797 1.69-1.596 7.77 2.478 2.34Zm2.365-17.14 2.477 2.34c1.012.95 1.103 2.36.196 3.32-.939.99-2.382 1.02-3.393.06l-2.478-2.34 3.198-3.38ZM665.779 1069.25l2.476 1.78 4.354-17.56-1.911-1.37-15.234 9.75 2.417 1.73 3.032-1.96 5.772 4.14-.906 3.49Zm-2.461-9.21 5.798-3.76-1.722 6.68-4.076-2.92ZM684.602 1060.92l-7.16 15.2 8.966 4.23 1.146-2.44-6.427-3.02 2.036-4.32 5.732 2.7 1.145-2.44-5.731-2.7 1.688-3.58 6.426 3.03 1.146-2.43-8.967-4.23ZM695.601 1066.07l-5.149 15.99 2.673.86 3.487-10.83 4.12 13.28 2.308.74 5.149-15.99-2.696-.87-3.486 10.83-4.075-13.26-2.331-.75ZM717.226 1081.92l3.957.63-.473 2.96c-1.131.7-2.562.98-4.292.7-3.175-.51-5.104-3.34-4.556-6.78.542-3.39 3.195-5.39 6.395-4.88 2.085.33 3.625 1.65 4.106 3.35l2.658-.81c-.487-2.59-3.062-4.72-6.333-5.24-4.74-.76-8.925 2.31-9.693 7.12-.769 4.81 2.256 9.16 6.996 9.92 2.938.47 5.545-.33 7.345-2.01l1.044-6.54-6.73-1.08-.424 2.66ZM728.017 1073.13l-.94 16.77 2.804.16.94-16.78-2.804-.15ZM733.345 1073.55l.731 16.79 2.805-.13-.495-11.36 8.48 11.02 2.421-.11-.731-16.78-2.829.12.495 11.37-8.431-11.02-2.446.1ZM749.881 1072.48l2.918 16.55 9.761-1.72-.467-2.65-6.996 1.23-.829-4.7 6.24-1.1-.467-2.65-6.24 1.1-.688-3.9 6.996-1.23-.467-2.65-9.761 1.72Z" fill="#fff"/><path d="M915.374 324.393A153.364 153.364 0 0 1 996 301.5c28.48-.003 56.4 7.924 80.63 22.893a153.343 153.343 0 0 1 56.55 61.861l258.11 516.25 1.35-.671-1.35.671a153.388 153.388 0 0 1 16.06 75.494 153.507 153.507 0 0 1-22.75 73.752 153.34 153.34 0 0 1-55.79 53.34 153.426 153.426 0 0 1-74.7 19.41H737.886c-26.147 0-51.861-6.68-74.698-19.41a153.308 153.308 0 0 1-55.787-53.34 153.381 153.381 0 0 1-6.695-149.246l-1.341-.671 1.342.671 258.113-516.25h.001a153.365 153.365 0 0 1 56.553-61.861Z" stroke="#fff" stroke-width="3"/><rect x="215.5" y="313.5" width="212" height="212" rx="106" fill="#70D44B" stroke="#70D44B" stroke-width="3"/><mask id="b" style="mask-type:alpha" maskUnits="userSpaceOnUse" x="214" y="312" width="215" height="215"><rect x="215.5" y="313.5" width="212" height="212" rx="106" fill="#70D44B" stroke="#70D44B" stroke-width="3"/></mask><g mask="url(#b)"><path d="M383.081 396.72s-2.318-58.694-61.416-58.694c-69.526 0-79.376 121.428-79.376 121.428h18.154v27.904s-1.159 9.044 7.146 9.044c.966 0 12.553 0 28.004.193 2.124 6.35-.386 16.357 1.159 30.405h77.445c13.133-73.126 8.884-130.28 8.884-130.28Zm-105.835 30.982c-3.863 0-7.146-3.079-7.146-7.12 0-3.849 3.09-7.12 7.146-7.12 4.055 0 7.145 3.079 7.145 7.12 0 3.849-3.283 7.12-7.145 7.12Zm33.604-11.738h-5.214v3.848h-1.739v-3.848h-5.407v-17.32h5.407v-7.312h1.739v7.312h5.407v17.32h-.193Zm17.768-6.736h-5.408v6.543h-1.738v-6.543h-5.407v-39.449h5.407v-12.701h1.738v12.701h5.408v39.449Zm17.768-28.865h-5.408v10.391h-1.738v-10.391h-5.407v-13.471h5.407v-4.234h1.738v4.234h5.408v13.471Zm17.575 30.597h-5.215v6.928h-1.352v-6.928h-5.6v-35.408h5.6v-5.389h1.352v5.389h5.215v35.408Z" fill="#fff"/></g><circle cx="410" cy="293" r="56" fill="#D539B5"/><circle cx="996" cy="293" r="56" fill="#D539B5"/><circle cx="1261" cy="611" r="56" fill="#D539B5"/><circle cx="1409" cy="905" r="56" fill="#D539B5"/><circle cx="996" cy="1121" r="56" fill="#D539B5"/><circle cx="582" cy="914" r="56" fill="#D539B5"/><circle cx="731" cy="611" r="56" fill="#D539B5"/><path d="M415.16 269.2h-5.12l-12.416 9.472v9.024l10.112-8.192V314h7.424v-44.8ZM980.91 314h30.46v-7.296h-18.364l8.834-8.832c5.57-5.248 9.21-10.048 9.21-15.616 0-8-6.33-13.696-14.844-13.696-8.704 0-15.68 6.464-15.68 15.68l7.36.384c.064-5.504 3.2-8.768 8.256-8.768 4.158 0 7.228 2.752 7.228 6.592 0 3.52-2.24 6.144-6.844 10.688L980.91 308.56V314ZM1253.77 605.952l2.43 4.864c5.96-2.368 12.42.448 12.42 6.592 0 4.672-3.46 7.936-8.26 7.936-4.48 0-8.19-3.008-9.08-7.232l-6.72 2.304c1.15 7.168 7.74 12.224 15.8 12.224 9.22 0 15.94-6.272 15.94-15.04 0-7.744-5.82-13.376-13.12-12.992l11.9-12.416V587.2h-29.18v7.168h18.37l-10.5 11.584ZM1426.41 909.616h-5.31v-12.608h-7.49v12.608h-12.92l15.1-28.416h-8.51l-15.94 30.08v5.12h22.27v9.6h7.49v-9.6h5.31v-6.784ZM995.649 1142.64c8.771 0 15.741-6.66 15.741-15.1 0-8.96-6.33-14.92-14.653-14.92-2.624 0-5.312.71-6.976 1.92l1.024-10.3h17.725v-7.04h-24.445l-1.984 23.36 6.528 1.34c1.536-1.72 4.224-2.68 7.04-2.68 4.541 0 8.061 3.45 8.061 8.19 0 4.41-3.52 7.93-8.061 7.93-4.288 0-8-2.88-9.152-7.1l-6.848 2.18c1.216 7.1 8 12.22 16 12.22ZM583.279 905.56c-.896 0-1.792.128-2.688.256l9.92-15.616h-8.576l-11.904 19.136c-2.432 3.904-3.584 7.936-3.584 11.008 0 8.384 7.04 15.296 15.616 15.296s15.616-6.912 15.616-15.296c0-8.576-6.592-14.784-14.4-14.784Zm-1.216 22.976c-4.672 0-8.32-3.776-8.32-8.256 0-2.112.832-4.608 2.368-7.232 1.536-.64 3.648-1.152 5.888-1.152 4.608 0 8.448 3.776 8.448 8.384 0 4.48-3.648 8.256-8.384 8.256ZM715.554 587.2v7.232h21.312L718.754 632h8.384l18.88-39.68v-5.12h-30.464Z" fill="#fff"/><circle cx="730.5" cy="969.5" r="79.5" fill="#fff"/><circle cx="995.5" cy="447.5" r="79.5" fill="#fff"/><path d="M1340 969.5c0 43.91-35.59 79.5-79.5 79.5s-79.5-35.59-79.5-79.5c0-43.907 35.59-79.5 79.5-79.5s79.5 35.593 79.5 79.5Z" fill="#fff"/><path d="M465 446.5a1.5 1.5 0 0 0 0 3v-3Zm416.061 2.561a1.502 1.502 0 0 0 0-2.122l-9.546-9.546a1.502 1.502 0 0 0-2.122 0 1.502 1.502 0 0 0 0 2.122l8.486 8.485-8.486 8.485a1.502 1.502 0 0 0 0 2.122 1.502 1.502 0 0 0 2.122 0l9.546-9.546ZM465 449.5h415v-3H465v3ZM1058.34 553.332a1.5 1.5 0 0 0-2.01-.675 1.499 1.499 0 0 0-.67 2.011l2.68-1.336Zm152.41 312.202c.78.264 1.63-.159 1.9-.945l4.29-12.798a1.497 1.497 0 0 0-.94-1.899 1.497 1.497 0 0 0-1.9.944l-3.82 11.376-11.38-3.819c-.78-.263-1.63.16-1.9.945-.26.785.16 1.636.95 1.899l12.8 4.297Zm-155.09-310.866 154.22 310.112 2.69-1.336-154.23-310.112-2.68 1.336ZM781.343 864.78a1.5 1.5 0 1 1-2.686-1.336l2.686 1.336Zm152.403-312.202a1.499 1.499 0 0 1 1.899.945l4.297 12.798a1.5 1.5 0 1 1-2.844.954l-3.819-11.376-11.376 3.82a1.5 1.5 0 1 1-.955-2.844l12.798-4.297ZM778.657 863.444 932.88 553.332l2.686 1.336L781.343 864.78l-2.686-1.336ZM1146 971.5a1.5 1.5 0 1 0 0-3v3Zm-301.061-2.561a1.502 1.502 0 0 0 0 2.122l9.546 9.546a1.502 1.502 0 0 0 2.122 0 1.502 1.502 0 0 0 0-2.122L848.121 970l8.486-8.485a1.502 1.502 0 0 0 0-2.122 1.502 1.502 0 0 0-2.122 0l-9.546 9.546ZM1146 968.5H846v3h300v-3Z" fill="#70D44B"/><path d="m976.4 472-12.224-18.816c5.248-1.792 8.512-6.464 8.512-12.672 0-7.488-6.272-13.312-13.76-13.312h-16.832V472h7.488v-17.984h6.592L967.312 472h9.088Zm-26.816-37.568h9.088c3.712 0 6.464 2.56 6.464 6.08 0 3.648-2.752 6.336-6.464 6.336h-9.088v-12.416Zm46.932-7.232h-17.152V472h7.488v-17.28h9.664c8.254 0 14.334-5.824 14.334-13.824 0-7.872-6.08-13.696-14.334-13.696Zm0 20.352h-9.664v-13.184h9.664c3.904 0 6.784 2.816 6.784 6.528 0 3.776-2.88 6.656-6.784 6.656Zm58.184 12.992-6.78-3.072c-1.73 4.8-6.59 7.872-12.61 7.872-8.7 0-14.78-6.784-14.78-15.808 0-9.024 6.08-15.68 14.78-15.68 5.63 0 10.3 2.816 12.22 7.104l6.72-3.264c-2.43-6.592-10.11-11.136-18.94-11.136-12.93 0-22.53 9.984-22.53 22.976 0 13.056 9.6 23.104 22.53 23.104 9.15 0 17.09-4.928 19.39-12.096Z" fill="#101820"/><path d="M730.5 920.562a10.95 10.95 0 0 1 9.838 6.078l30.936 61.875a11.002 11.002 0 0 1-.479 10.704 11.108 11.108 0 0 1-4.001 3.831 11.035 11.035 0 0 1-5.358 1.39h-61.872c-1.875 0-3.72-.48-5.358-1.39a11.108 11.108 0 0 1-4.001-3.831 11.006 11.006 0 0 1-.479-10.704l30.936-61.875a10.94 10.94 0 0 1 9.838-6.078Zm0-7.562a18.56 18.56 0 0 0-16.602 10.257l-30.937 61.875a18.573 18.573 0 0 0 .811 18.068 18.577 18.577 0 0 0 15.792 8.8h61.872a18.577 18.577 0 0 0 15.792-8.8 18.573 18.573 0 0 0 .811-18.068l-30.937-61.875A18.56 18.56 0 0 0 730.5 913Z" fill="#70D44B"/><path d="m1284.61 933.23-16.31 24.207c-.23.349-.33.77-.27 1.185.05.416.25.797.57 1.075.31.277.71.432 1.13.435.42.003.83-.146 1.14-.42l16.05-13.92a.668.668 0 0 1 .71-.108c.11.053.21.137.28.244.06.106.1.23.1.357v43.582c0 .134-.04.264-.12.373a.699.699 0 0 1-.31.238.658.658 0 0 1-.39.017.629.629 0 0 1-.33-.211l-48.51-58.072a8.335 8.335 0 0 0-6.35-2.941h-1.69c-2.2 0-4.32.875-5.88 2.434a8.339 8.339 0 0 0-2.43 5.875v61.382c0 2.208.88 4.318 2.43 5.878a8.318 8.318 0 0 0 5.88 2.43c1.42 0 2.82-.36 4.06-1.06a8.236 8.236 0 0 0 3.02-2.9l16.31-24.206c.23-.348.33-.769.27-1.185a1.682 1.682 0 0 0-.57-1.074 1.706 1.706 0 0 0-1.13-.435c-.42-.003-.83.146-1.14.419l-16.05 13.921a.668.668 0 0 1-.71.107.696.696 0 0 1-.28-.243.74.74 0 0 1-.1-.357v-43.593c0-.134.04-.264.12-.373a.65.65 0 0 1 1.03-.044l48.51 58.083a8.38 8.38 0 0 0 2.84 2.17c1.1.51 2.29.77 3.5.77h1.7a8.274 8.274 0 0 0 5.87-2.43c.78-.77 1.39-1.69 1.81-2.7.41-1.01.63-2.09.63-3.178V937.58c0-2.204-.88-4.317-2.43-5.875a8.326 8.326 0 0 0-9.94-1.378 8.276 8.276 0 0 0-3.02 2.903Z" fill="#101820"/><path d="m1226.84 1072.96-3.21 16.49 2.75.53 2.18-11.16 5.67 12.69 2.38.46 3.21-16.49-2.78-.54-2.18 11.17-5.62-12.69-2.4-.46ZM1242.86 1075.79l-1.03 16.76 9.89.62.16-2.69-7.09-.43.3-4.77 6.32.39.17-2.68-6.32-.39.24-3.96 7.09.44.17-2.68-9.9-.61ZM1267.38 1092.51l3.04-.2-7.81-16.31-2.34.16-5.56 17.21 2.97-.2 1.09-3.44 7.09-.48 1.52 3.26Zm-7.76-5.54 2.09-6.58 2.92 6.25-5.01.33ZM1286.95 1089.02l-5.93-5.97c1.79-1.06 2.63-3.02 2.16-5.3-.58-2.75-3.33-4.41-6.07-3.84l-6.18 1.29 3.42 16.45 2.75-.58-1.37-6.6 2.42-.5 5.46 5.75 3.34-.7Zm-12.72-11.74 3.33-.69c1.37-.29 2.57.44 2.84 1.73.28 1.34-.52 2.54-1.89 2.83l-3.33.69-.95-4.56ZM1296.23 1067.95l-5.95 2.44 6.37 15.55 2.6-1.07-2.46-5.99 3.35-1.38c2.87-1.17 4.15-4.06 3.01-6.83-1.12-2.73-4.06-3.89-6.92-2.72Zm2.89 7.07-3.35 1.37-1.88-4.57 3.36-1.38c1.35-.55 2.75.01 3.28 1.3.54 1.31-.05 2.72-1.41 3.28ZM1322.75 1073.16l-7.47-3.87c1.38-1.56 1.58-3.69.43-5.71-1.38-2.44-4.51-3.18-6.95-1.79l-5.49 3.11 8.3 14.61 2.44-1.38-3.33-5.87 2.15-1.22 6.96 3.8 2.96-1.68Zm-15.7-7.29 2.97-1.68c1.21-.69 2.58-.36 3.23.79.67 1.19.27 2.57-.94 3.26l-2.96 1.68-2.3-4.05ZM1321.61 1052.85c-3.82 2.98-4.45 8.18-1.44 12.05 3.02 3.88 8.24 4.56 12.06 1.58 3.83-2.98 4.42-8.19 1.4-12.07-3.01-3.86-8.19-4.54-12.02-1.56Zm1.68 2.16c2.52-1.97 6.02-1.46 8.07 1.17 2.06 2.65 1.71 6.18-.81 8.14-2.54 1.98-6.03 1.44-8.09-1.21-2.05-2.63-1.7-6.13.83-8.1ZM1337.92 1037.77l-9.07 9.5 1.95 1.85 3.56-3.73 10.21 9.75 1.93-2.03-10.2-9.75 3.56-3.73-1.94-1.86ZM1343.57 1029.77c-2.79 3.96-1.88 9.12 2.12 11.94 4.03 2.83 9.22 1.97 12.01-2 2.79-3.96 1.84-9.12-2.19-11.95-4-2.82-9.15-1.96-11.94 2.01Zm2.23 1.57c1.84-2.61 5.33-3.15 8.06-1.23 2.74 1.94 3.44 5.42 1.6 8.03-1.85 2.63-5.35 3.13-8.09 1.2-2.73-1.92-3.42-5.37-1.57-8ZM1367.2 1013.5l-2.15 1.78c1.33 1.38 1.57 3.52.58 5.55-1.43 2.93-4.72 3.86-7.76 2.38s-4.29-4.63-2.85-7.56c.92-1.9 2.64-3.01 4.4-2.95l.01-2.8c-2.63-.27-5.42 1.57-6.87 4.55-2.13 4.36-.34 9.23 4.03 11.37 4.4 2.15 9.37.56 11.5-3.79 1.5-3.09 1.15-6.57-.89-8.53ZM1358.7 998.627c-1.41 4.633 1.06 9.263 5.75 10.693 4.7 1.43 9.36-1.01 10.78-5.64 1.41-4.64-1.09-9.246-5.8-10.684-4.68-1.43-9.31.995-10.73 5.631Zm2.62.799c.93-3.052 4.08-4.65 7.27-3.675 3.21.982 4.95 4.073 4.02 7.129-.94 3.07-4.1 4.64-7.32 3.66-3.19-.98-4.91-4.04-3.97-7.114ZM1361.62 988.546l16.61 2.511 1.62-10.726-2.66-.402-1.2 7.95-13.95-2.109-.42 2.776ZM474.132 388.324c5.652 0 9.828-4.212 9.828-9.936V362.8h-4.212v15.588c0 3.348-2.412 5.868-5.616 5.868-3.204 0-5.616-2.52-5.616-5.868V362.8h-4.212v15.588c0 5.724 4.176 9.936 9.828 9.936Zm20.555.072c4.032 0 6.876-2.304 6.876-5.472 0-6.516-9.864-4.68-9.864-7.668 0-1.152.972-1.872 2.448-1.872s3.996.648 5.4 1.872l1.584-3.096c-1.584-1.44-4.14-2.124-6.588-2.124-4.032 0-6.84 2.268-6.84 5.544 0 6.516 9.792 4.248 9.792 7.488 0 1.116-1.152 1.944-2.916 1.944-1.98 0-4.572-.9-5.94-2.196l-1.584 3.024c1.728 1.548 4.788 2.556 7.632 2.556Zm26.639-9.972c0-4.716-3.708-8.388-8.46-8.388-5.076 0-9.072 3.96-9.072 9.072 0 5.256 4.068 9.252 9.144 9.252 3.636 0 6.588-1.44 7.884-3.816l-3.204-2.052c-.828 1.368-2.628 2.232-4.608 2.232-2.736 0-4.608-1.584-5.148-4.212h13.32c.108-.504.144-1.62.144-2.088Zm-13.392-1.332c.612-2.196 2.34-3.42 4.716-3.42 2.412 0 4.14 1.44 4.464 3.42h-9.18Zm25.225-7.056c-1.62 0-3.6 1.08-4.5 2.772v-2.412h-3.996V388h3.996v-11.232c.936-1.944 2.844-3.024 4.176-3.024a6.69 6.69 0 0 1 2.088.36l.252-3.78c-.504-.18-1.188-.288-2.016-.288Zm19.325 18.36c4.032 0 6.876-2.304 6.876-5.472 0-6.516-9.864-4.68-9.864-7.668 0-1.152.972-1.872 2.448-1.872s3.996.648 5.4 1.872l1.584-3.096c-1.584-1.44-4.14-2.124-6.588-2.124-4.032 0-6.84 2.268-6.84 5.544 0 6.516 9.792 4.248 9.792 7.488 0 1.116-1.152 1.944-2.916 1.944-1.98 0-4.572-.9-5.94-2.196l-1.584 3.024c1.728 1.548 4.788 2.556 7.632 2.556Zm26.639-9.972c0-4.716-3.708-8.388-8.46-8.388-5.076 0-9.072 3.96-9.072 9.072 0 5.256 4.068 9.252 9.144 9.252 3.636 0 6.588-1.44 7.884-3.816l-3.204-2.052c-.828 1.368-2.628 2.232-4.608 2.232-2.736 0-4.608-1.584-5.148-4.212h13.32c.108-.504.144-1.62.144-2.088Zm-13.392-1.332c.612-2.196 2.34-3.42 4.716-3.42 2.412 0 4.14 1.44 4.464 3.42h-9.18Zm26.125-7.056c-2.232 0-4.32 1.044-5.4 2.736v-2.376h-3.996V388h3.996v-11.52c.9-1.512 2.628-2.448 4.428-2.448 2.484 0 4.14 1.728 4.14 4.572V388h4.032v-10.044c0-4.86-2.808-7.92-7.2-7.92Zm24.592-7.236v9.972c-.936-1.584-3.276-2.736-5.616-2.736-4.752 0-8.46 4.032-8.46 9.144 0 5.148 3.708 9.18 8.46 9.18 2.34 0 4.68-1.152 5.616-2.736V388h3.996v-25.2h-3.996Zm-4.788 21.744c-3.024 0-5.328-2.304-5.328-5.364s2.304-5.328 5.328-5.328c2.016 0 3.924 1.116 4.788 2.664v5.4c-.864 1.512-2.808 2.628-4.788 2.628Zm19.539 3.852c4.032 0 6.876-2.304 6.876-5.472 0-6.516-9.864-4.68-9.864-7.668 0-1.152.972-1.872 2.448-1.872s3.996.648 5.4 1.872l1.584-3.096c-1.584-1.44-4.14-2.124-6.588-2.124-4.032 0-6.84 2.268-6.84 5.544 0 6.516 9.792 4.248 9.792 7.488 0 1.116-1.152 1.944-2.916 1.944-1.98 0-4.572-.9-5.94-2.196l-1.584 3.024c1.728 1.548 4.788 2.556 7.632 2.556Zm24.574 0c4.032 0 6.876-2.304 6.876-5.472 0-6.516-9.864-4.68-9.864-7.668 0-1.152.972-1.872 2.448-1.872s3.996.648 5.4 1.872l1.584-3.096c-1.584-1.44-4.14-2.124-6.588-2.124-4.032 0-6.84 2.268-6.84 5.544 0 6.516 9.792 4.248 9.792 7.488 0 1.116-1.152 1.944-2.916 1.944-1.98 0-4.572-.9-5.94-2.196l-1.584 3.024c1.728 1.548 4.788 2.556 7.632 2.556Zm12.164-26.172c-1.404 0-2.556 1.188-2.556 2.556 0 1.44 1.152 2.592 2.556 2.592a2.604 2.604 0 0 0 2.592-2.592c0-1.368-1.188-2.556-2.592-2.556Zm-2.016 8.172V388h3.996v-17.604h-3.996Zm21.402-.036v2.34c-.936-1.548-3.276-2.664-5.616-2.664-4.752 0-8.46 3.924-8.46 8.928 0 5.04 3.708 9 8.46 9 2.34 0 4.68-1.152 5.616-2.664v1.98c0 2.628-2.16 4.464-4.86 4.464-2.268 0-4.428-.72-5.832-2.088l-2.016 2.772c1.62 1.8 4.932 2.916 7.992 2.916 5.004 0 8.712-3.132 8.712-7.992V370.36h-3.996Zm-4.788 13.86c-3.024 0-5.328-2.232-5.328-5.256 0-2.988 2.304-5.22 5.328-5.22 2.016 0 3.924 1.08 4.788 2.592v5.328c-.864 1.476-2.808 2.556-4.788 2.556Zm22.419-14.184c-2.232 0-4.32 1.044-5.4 2.736v-2.376h-3.996V388h3.996v-11.52c.9-1.512 2.628-2.448 4.428-2.448 2.484 0 4.14 1.728 4.14 4.572V388h4.032v-10.044c0-4.86-2.808-7.92-7.2-7.92Zm28.048 8.388c0-4.716-3.708-8.388-8.46-8.388-5.076 0-9.072 3.96-9.072 9.072 0 5.256 4.068 9.252 9.144 9.252 3.636 0 6.588-1.44 7.884-3.816l-3.204-2.052c-.828 1.368-2.628 2.232-4.608 2.232-2.736 0-4.608-1.584-5.148-4.212h13.32c.108-.504.144-1.62.144-2.088Zm-13.392-1.332c.612-2.196 2.34-3.42 4.716-3.42 2.412 0 4.14 1.44 4.464 3.42h-9.18Zm29.588-14.292v9.972c-.936-1.584-3.276-2.736-5.616-2.736-4.752 0-8.46 4.032-8.46 9.144 0 5.148 3.708 9.18 8.46 9.18 2.34 0 4.68-1.152 5.616-2.736V388h3.996v-25.2h-3.996Zm-4.788 21.744c-3.024 0-5.328-2.304-5.328-5.364s2.304-5.328 5.328-5.328c2.016 0 3.924 1.116 4.788 2.664v5.4c-.864 1.512-2.808 2.628-4.788 2.628ZM464.304 394.8V420h14.868v-4.032h-10.656v-7.164h9.504v-4.032h-9.504v-5.94h10.656V394.8h-14.868Zm28.149 21.492a5.44 5.44 0 0 1-1.368.216c-1.764 0-3.204-1.224-3.204-3.276v-7.02h4.608v-3.816h-4.608v-4.716h-3.996v4.716h-3.384v3.816h3.384v7.2c0 4.356 2.736 6.84 6.624 6.84.756 0 1.584-.144 2.16-.432l-.216-3.528Zm12.777-14.256c-2.232 0-4.32 1.044-5.364 2.736V394.8h-3.996V420h3.996v-11.52c.864-1.512 2.628-2.448 4.392-2.448 2.52 0 4.14 1.728 4.14 4.572V420h4.032v-10.044c0-4.86-2.772-7.92-7.2-7.92Zm28.085 8.388c0-4.716-3.708-8.388-8.46-8.388-5.076 0-9.072 3.96-9.072 9.072 0 5.256 4.068 9.252 9.144 9.252 3.636 0 6.588-1.44 7.884-3.816l-3.204-2.052c-.828 1.368-2.628 2.232-4.608 2.232-2.736 0-4.608-1.584-5.148-4.212h13.32c.108-.504.144-1.62.144-2.088Zm-13.392-1.332c.612-2.196 2.34-3.42 4.716-3.42 2.412 0 4.14 1.44 4.464 3.42h-9.18Zm25.224-7.056c-1.62 0-3.6 1.08-4.5 2.772v-2.412h-3.996V420h3.996v-11.232c.936-1.944 2.844-3.024 4.176-3.024a6.69 6.69 0 0 1 2.088.36l.252-3.78c-.504-.18-1.188-.288-2.016-.288Zm20.16 8.388c0-4.716-3.708-8.388-8.46-8.388-5.076 0-9.072 3.96-9.072 9.072 0 5.256 4.068 9.252 9.144 9.252 3.636 0 6.588-1.44 7.884-3.816l-3.204-2.052c-.828 1.368-2.628 2.232-4.608 2.232-2.736 0-4.608-1.584-5.148-4.212h13.32c.108-.504.144-1.62.144-2.088Zm-13.392-1.332c.612-2.196 2.34-3.42 4.716-3.42 2.412 0 4.14 1.44 4.464 3.42h-9.18Zm29.293-6.696v11.484c-.9 1.512-2.628 2.484-4.392 2.484-2.52 0-4.176-1.728-4.176-4.572v-9.396h-3.996v10.008c0 4.896 2.772 7.956 7.2 7.956 2.196 0 4.32-1.044 5.364-2.736V420h4.032v-17.604h-4.032Zm28.66-.36c-2.556 0-4.572 1.44-5.76 2.844-1.116-1.944-2.88-2.844-5.292-2.844-2.736 0-4.5 1.476-5.364 2.664v-2.304h-3.996V420h3.996v-11.808a4.483 4.483 0 0 1 3.996-2.448c2.232 0 3.78 1.62 3.78 4.248V420h4.032v-11.232l-.108-.612c.792-1.332 2.412-2.412 3.996-2.412 2.376 0 3.852 1.62 3.852 4.248V420h4.068v-10.764c0-4.356-2.952-7.2-7.2-7.2Zm29.539 14.256a5.44 5.44 0 0 1-1.368.216c-1.764 0-3.204-1.224-3.204-3.276v-7.02h4.608v-3.816h-4.608v-4.716h-3.996v4.716h-3.384v3.816h3.384v7.2c0 4.356 2.736 6.84 6.624 6.84.756 0 1.584-.144 2.16-.432l-.216-3.528Zm19.58 3.708-6.444-9.108 6.012-8.496h-4.752l-3.672 5.148-3.636-5.148h-4.86l6.084 8.532-6.444 9.072h4.788l4.032-5.688 4.068 5.688h4.824ZM1198.72 360.8l-5.76 18.252-5.84-18.252h-3.49l-5.94 18.252-5.76-18.252h-4.5l8.46 25.2h3.49l5.94-18.252 5.94 18.252h3.46l8.39-25.2h-4.39Zm13.88 7.236c-1.62 0-3.6 1.08-4.5 2.772v-2.412h-4V386h4v-11.232c.94-1.944 2.84-3.024 4.18-3.024.68 0 1.47.144 2.08.36l.26-3.78c-.51-.18-1.19-.288-2.02-.288Zm16.7.36v2.376c-.93-1.584-3.27-2.736-5.61-2.736-4.75 0-8.46 4.032-8.46 9.144 0 5.148 3.71 9.18 8.46 9.18 2.34 0 4.68-1.152 5.61-2.736V386h4v-17.604h-4Zm-4.78 14.148c-3.03 0-5.33-2.304-5.33-5.364s2.3-5.328 5.33-5.328c2.01 0 3.92 1.116 4.78 2.664v5.4c-.86 1.512-2.8 2.628-4.78 2.628Zm22.63-14.508c-2.34 0-4.68 1.152-5.62 2.7v-2.34h-3.99v23.796h3.99v-8.568c.94 1.584 3.28 2.736 5.62 2.736 4.75 0 8.46-4.032 8.46-9.144 0-5.148-3.71-9.18-8.46-9.18Zm-.83 14.508c-2.01 0-3.92-1.116-4.79-2.664v-5.4c.87-1.512 2.81-2.628 4.79-2.628 3.03 0 5.33 2.268 5.33 5.364 0 3.06-2.3 5.328-5.33 5.328Zm18.97 3.852c4.03 0 6.87-2.304 6.87-5.472 0-6.516-9.86-4.68-9.86-7.668 0-1.152.97-1.872 2.45-1.872 1.47 0 3.99.648 5.4 1.872l1.58-3.096c-1.58-1.44-4.14-2.124-6.59-2.124-4.03 0-6.84 2.268-6.84 5.544 0 6.516 9.8 4.248 9.8 7.488 0 1.116-1.16 1.944-2.92 1.944-1.98 0-4.57-.9-5.94-2.196l-1.58 3.024c1.72 1.548 4.78 2.556 7.63 2.556Zm18.24-25.596V386h14.86v-4.032h-10.65v-7.164h9.5v-4.032h-9.5v-5.94h10.65V360.8h-14.86Zm28.15 21.492a5.47 5.47 0 0 1-1.37.216c-1.77 0-3.21-1.224-3.21-3.276v-7.02h4.61v-3.816h-4.61v-4.716h-3.99v4.716h-3.39v3.816h3.39v7.2c0 4.356 2.73 6.84 6.62 6.84.76 0 1.59-.144 2.16-.432l-.21-3.528Zm12.77-14.256c-2.23 0-4.32 1.044-5.36 2.736V360.8h-4V386h4v-11.52c.86-1.512 2.63-2.448 4.39-2.448 2.52 0 4.14 1.728 4.14 4.572V386h4.03v-10.044c0-4.86-2.77-7.92-7.2-7.92Zm28.09 8.388c0-4.716-3.71-8.388-8.46-8.388-5.08 0-9.07 3.96-9.07 9.072 0 5.256 4.06 9.252 9.14 9.252 3.64 0 6.59-1.44 7.88-3.816l-3.2-2.052c-.83 1.368-2.63 2.232-4.61 2.232-2.73 0-4.61-1.584-5.15-4.212h13.32c.11-.504.15-1.62.15-2.088Zm-13.39-1.332c.61-2.196 2.34-3.42 4.71-3.42 2.41 0 4.14 1.44 4.47 3.42h-9.18Zm25.22-7.056c-1.62 0-3.6 1.08-4.5 2.772v-2.412h-4V386h4v-11.232c.94-1.944 2.84-3.024 4.18-3.024.68 0 1.47.144 2.08.36l.26-3.78c-.51-.18-1.19-.288-2.02-.288Zm20.16 8.388c0-4.716-3.71-8.388-8.46-8.388-5.08 0-9.07 3.96-9.07 9.072 0 5.256 4.07 9.252 9.14 9.252 3.64 0 6.59-1.44 7.89-3.816l-3.21-2.052c-.83 1.368-2.63 2.232-4.61 2.232-2.73 0-4.6-1.584-5.14-4.212h13.32c.1-.504.14-1.62.14-2.088Zm-13.39-1.332c.61-2.196 2.34-3.42 4.71-3.42 2.42 0 4.14 1.44 4.47 3.42h-9.18Zm29.29-6.696v11.484c-.9 1.512-2.63 2.484-4.39 2.484-2.52 0-4.18-1.728-4.18-4.572v-9.396h-3.99v10.008c0 4.896 2.77 7.956 7.2 7.956 2.19 0 4.32-1.044 5.36-2.736V386h4.03v-17.604h-4.03Zm28.66-.36c-2.56 0-4.57 1.44-5.76 2.844-1.12-1.944-2.88-2.844-5.29-2.844-2.74 0-4.5 1.476-5.37 2.664v-2.304h-3.99V386h3.99v-11.808a4.49 4.49 0 0 1 4-2.448c2.23 0 3.78 1.62 3.78 4.248V386h4.03v-11.232l-.11-.612c.8-1.332 2.42-2.412 4-2.412 2.38 0 3.85 1.62 3.85 4.248V386h4.07v-10.764c0-4.356-2.95-7.2-7.2-7.2Zm29.54 14.256a5.47 5.47 0 0 1-1.37.216c-1.76 0-3.2-1.224-3.2-3.276v-7.02h4.61v-3.816h-4.61v-4.716h-4v4.716h-3.38v3.816h3.38v7.2c0 4.356 2.74 6.84 6.63 6.84.75 0 1.58-.144 2.16-.432l-.22-3.528Zm19.58 3.708-6.44-9.108 6.01-8.496h-4.75l-3.68 5.148-3.63-5.148h-4.86l6.08 8.532-6.44 9.072h4.79l4.03-5.688 4.07 5.688h4.82Zm-307.07 6.224c-1.4 0-2.56 1.188-2.56 2.556 0 1.44 1.16 2.592 2.56 2.592 1.4 0 2.59-1.152 2.59-2.592 0-1.368-1.19-2.556-2.59-2.556Zm-2.02 8.172V418h4v-17.604h-4Zm17.63-.36c-2.24 0-4.32 1.044-5.4 2.736v-2.376h-4V418h4v-11.52c.9-1.512 2.62-2.448 4.42-2.448 2.49 0 4.14 1.728 4.14 4.572V418h4.04v-10.044c0-4.86-2.81-7.92-7.2-7.92Zm20.86 14.256c-.36.108-.93.216-1.36.216-1.77 0-3.21-1.224-3.21-3.276v-7.02h4.61v-3.816h-4.61v-4.716h-3.99v4.716h-3.39v3.816h3.39v7.2c0 4.356 2.73 6.84 6.62 6.84.76 0 1.58-.144 2.16-.432l-.22-3.528Zm10.68-14.256c-5.15 0-9.11 3.96-9.11 9.18s3.96 9.144 9.11 9.144c5.15 0 9.14-3.924 9.14-9.144 0-5.22-3.99-9.18-9.14-9.18Zm0 3.852c2.92 0 5.18 2.304 5.18 5.328 0 2.988-2.26 5.292-5.18 5.292s-5.15-2.304-5.15-5.292c0-3.024 2.23-5.328 5.15-5.328Zm20.59-11.088V418h4.21v-17.064L1255.08 418h3.63v-25.2h-4.24v17.064l-11.92-17.064h-3.67Zm24.43 0V418h14.87v-4.032h-10.66v-7.164h9.51v-4.032h-9.51v-5.94h10.66V392.8h-14.87Zm35.87 25.2h4.58l-10.05-25.2h-3.53l-10.04 25.2h4.46l1.98-5.04h10.66l1.94 5.04Zm-11.05-9.072 3.78-9.648 3.75 9.648h-7.53Zm37.54 9.072-6.87-10.584c2.95-1.008 4.79-3.636 4.79-7.128 0-4.212-3.53-7.488-7.74-7.488h-9.47V418h4.21v-10.116h3.71l6.26 10.116h5.11Zm-15.08-21.132h5.11c2.09 0 3.64 1.44 3.64 3.42 0 2.052-1.55 3.564-3.64 3.564h-5.11v-6.984Zm36.17 17.424c-.36.108-.93.216-1.37.216-1.76 0-3.2-1.224-3.2-3.276v-7.02h4.61v-3.816h-4.61v-4.716h-4v4.716h-3.38v3.816h3.38v7.2c0 4.356 2.74 6.84 6.63 6.84.75 0 1.58-.144 2.16-.432l-.22-3.528Zm19.58 3.708-6.44-9.108 6.01-8.496h-4.75l-3.67 5.148-3.64-5.148h-4.86l6.08 8.532-6.44 9.072h4.79l4.03-5.688 4.07 5.688h4.82ZM1339.51 595.44c-4.97 0-8.49 3.132-8.49 7.236 0 9.18 13.35 5.868 13.35 11.088 0 2.124-1.91 3.528-4.68 3.528-3.09 0-5.33-1.476-7.27-3.348l-2.7 3.096c2.2 2.448 6.12 4.32 9.97 4.32 5.62 0 9-3.6 9-7.632 0-9.108-13.43-6.012-13.43-11.376 0-1.692 1.62-2.844 3.93-2.844 2.27 0 4.75 1.08 6.44 2.808l2.45-3.276c-1.73-2.052-5.33-3.6-8.57-3.6Zm29.2 15.984c0-4.716-3.71-8.388-8.46-8.388-5.08 0-9.07 3.96-9.07 9.072 0 5.256 4.07 9.252 9.14 9.252 3.64 0 6.59-1.44 7.89-3.816l-3.21-2.052c-.83 1.368-2.63 2.232-4.61 2.232-2.73 0-4.6-1.584-5.14-4.212h13.32c.1-.504.14-1.62.14-2.088Zm-13.39-1.332c.61-2.196 2.34-3.42 4.71-3.42 2.42 0 4.14 1.44 4.47 3.42h-9.18Zm26.12-7.056c-2.23 0-4.32 1.044-5.4 2.736v-2.376h-3.99V621h3.99v-11.52c.9-1.512 2.63-2.448 4.43-2.448 2.48 0 4.14 1.728 4.14 4.572V621h4.03v-10.044c0-4.86-2.81-7.92-7.2-7.92Zm24.59-7.236v9.972c-.93-1.584-3.27-2.736-5.61-2.736-4.75 0-8.46 4.032-8.46 9.144 0 5.148 3.71 9.18 8.46 9.18 2.34 0 4.68-1.152 5.61-2.736V621h4v-25.2h-4Zm-4.78 21.744c-3.03 0-5.33-2.304-5.33-5.364s2.3-5.328 5.33-5.328c2.01 0 3.92 1.116 4.78 2.664v5.4c-.86 1.512-2.8 2.628-4.78 2.628Zm19.53 3.852c4.04 0 6.88-2.304 6.88-5.472 0-6.516-9.86-4.68-9.86-7.668 0-1.152.97-1.872 2.44-1.872 1.48 0 4 .648 5.4 1.872l1.59-3.096c-1.59-1.44-4.14-2.124-6.59-2.124-4.03 0-6.84 2.268-6.84 5.544 0 6.516 9.79 4.248 9.79 7.488 0 1.116-1.15 1.944-2.91 1.944-1.98 0-4.58-.9-5.94-2.196l-1.59 3.024c1.73 1.548 4.79 2.556 7.63 2.556Zm22.74-.396h3.17l4.18-11.412 4.17 11.412h3.21l6.37-17.604h-4.29l-3.7 11.412-4.14-11.412h-3.24l-4.11 11.412-3.71-11.412h-4.28l6.37 17.604Zm32.19-17.964c-1.62 0-3.6 1.08-4.5 2.772v-2.412h-4V621h4v-11.232c.94-1.944 2.84-3.024 4.18-3.024.68 0 1.47.144 2.08.36l.26-3.78c-.51-.18-1.19-.288-2.02-.288Zm16.7.36v2.376c-.93-1.584-3.27-2.736-5.61-2.736-4.75 0-8.46 4.032-8.46 9.144 0 5.148 3.71 9.18 8.46 9.18 2.34 0 4.68-1.152 5.61-2.736V621h4v-17.604h-4Zm-4.78 14.148c-3.03 0-5.33-2.304-5.33-5.364s2.3-5.328 5.33-5.328c2.01 0 3.92 1.116 4.78 2.664v5.4c-.86 1.512-2.8 2.628-4.78 2.628Zm22.63-14.508c-2.34 0-4.68 1.152-5.62 2.7v-2.34h-3.99v23.796h3.99v-8.568c.94 1.584 3.28 2.736 5.62 2.736 4.75 0 8.46-4.032 8.46-9.144 0-5.148-3.71-9.18-8.46-9.18Zm-.83 14.508c-2.01 0-3.92-1.116-4.79-2.664v-5.4c.87-1.512 2.81-2.628 4.79-2.628 3.03 0 5.33 2.268 5.33 5.364 0 3.06-2.3 5.328-5.33 5.328Zm22.24-14.508c-2.34 0-4.68 1.152-5.62 2.7v-2.34h-3.99v23.796h3.99v-8.568c.94 1.584 3.28 2.736 5.62 2.736 4.75 0 8.46-4.032 8.46-9.144 0-5.148-3.71-9.18-8.46-9.18Zm-.83 14.508c-2.01 0-3.92-1.116-4.79-2.664v-5.4c.87-1.512 2.81-2.628 4.79-2.628 3.03 0 5.33 2.268 5.33 5.364 0 3.06-2.3 5.328-5.33 5.328Zm28.94-6.12c0-4.716-3.7-8.388-8.46-8.388-5.07 0-9.07 3.96-9.07 9.072 0 5.256 4.07 9.252 9.15 9.252 3.63 0 6.58-1.44 7.88-3.816l-3.2-2.052c-.83 1.368-2.63 2.232-4.61 2.232-2.74 0-4.61-1.584-5.15-4.212h13.32c.11-.504.14-1.62.14-2.088Zm-13.39-1.332c.61-2.196 2.34-3.42 4.72-3.42 2.41 0 4.14 1.44 4.46 3.42h-9.18Zm29.59-14.292v9.972c-.94-1.584-3.28-2.736-5.62-2.736-4.75 0-8.46 4.032-8.46 9.144 0 5.148 3.71 9.18 8.46 9.18 2.34 0 4.68-1.152 5.62-2.736V621h4v-25.2h-4Zm-4.79 21.744c-3.02 0-5.33-2.304-5.33-5.364s2.31-5.328 5.33-5.328c2.02 0 3.93 1.116 4.79 2.664v5.4c-.86 1.512-2.81 2.628-4.79 2.628Zm31.16-.252a5.47 5.47 0 0 1-1.37.216c-1.76 0-3.2-1.224-3.2-3.276v-7.02h4.6v-3.816h-4.6v-4.716h-4v4.716h-3.38v3.816h3.38v7.2c0 4.356 2.74 6.84 6.62 6.84.76 0 1.59-.144 2.16-.432l-.21-3.528Zm19.58 3.708-6.45-9.108 6.02-8.496h-4.76l-3.67 5.148-3.63-5.148h-4.86l6.08 8.532-6.44 9.072h4.78l4.04-5.688 4.06 5.688h4.83ZM1488.13 888.324c5.65 0 9.83-4.212 9.83-9.936V862.8h-4.21v15.588c0 3.348-2.41 5.868-5.62 5.868-3.2 0-5.61-2.52-5.61-5.868V862.8h-4.22v15.588c0 5.724 4.18 9.936 9.83 9.936Zm23.65-18.288c-2.23 0-4.32 1.044-5.4 2.736v-2.376h-4V888h4v-11.52c.9-1.512 2.63-2.448 4.43-2.448 2.48 0 4.14 1.728 4.14 4.572V888h4.03v-10.044c0-4.86-2.81-7.92-7.2-7.92ZM1526.82 888h3.17l4.17-11.412 4.18 11.412h3.2l6.38-17.604h-4.29l-3.71 11.412-4.14-11.412h-3.24l-4.1 11.412-3.71-11.412h-4.28l6.37 17.604Zm32.19-17.964c-1.62 0-3.6 1.08-4.5 2.772v-2.412h-4V888h4v-11.232c.93-1.944 2.84-3.024 4.17-3.024.69 0 1.48.144 2.09.36l.25-3.78c-.5-.18-1.19-.288-2.01-.288Zm16.7.36v2.376c-.94-1.584-3.28-2.736-5.62-2.736-4.75 0-8.46 4.032-8.46 9.144 0 5.148 3.71 9.18 8.46 9.18 2.34 0 4.68-1.152 5.62-2.736V888h4v-17.604h-4Zm-4.79 14.148c-3.02 0-5.33-2.304-5.33-5.364s2.31-5.328 5.33-5.328c2.02 0 3.93 1.116 4.79 2.664v5.4c-.86 1.512-2.81 2.628-4.79 2.628Zm22.64-14.508c-2.34 0-4.68 1.152-5.62 2.7v-2.34h-4v23.796h4v-8.568c.94 1.584 3.28 2.736 5.62 2.736 4.75 0 8.46-4.032 8.46-9.144 0-5.148-3.71-9.18-8.46-9.18Zm-.83 14.508c-2.02 0-3.93-1.116-4.79-2.664v-5.4c.86-1.512 2.81-2.628 4.79-2.628 3.02 0 5.33 2.268 5.33 5.364 0 3.06-2.31 5.328-5.33 5.328Zm18.96 3.852c4.04 0 6.88-2.304 6.88-5.472 0-6.516-9.86-4.68-9.86-7.668 0-1.152.97-1.872 2.44-1.872 1.48 0 4 .648 5.4 1.872l1.59-3.096c-1.59-1.44-4.14-2.124-6.59-2.124-4.03 0-6.84 2.268-6.84 5.544 0 6.516 9.79 4.248 9.79 7.488 0 1.116-1.15 1.944-2.91 1.944-1.98 0-4.58-.9-5.94-2.196l-1.59 3.024c1.73 1.548 4.79 2.556 7.63 2.556Zm28.29-4.104a5.47 5.47 0 0 1-1.37.216c-1.77 0-3.21-1.224-3.21-3.276v-7.02h4.61v-3.816h-4.61v-4.716h-3.99v4.716h-3.39v3.816h3.39v7.2c0 4.356 2.73 6.84 6.62 6.84.76 0 1.59-.144 2.16-.432l-.21-3.528Zm19.58 3.708-6.45-9.108 6.02-8.496h-4.76l-3.67 5.148-3.63-5.148h-4.86l6.08 8.532-6.44 9.072h4.78l4.04-5.688 4.06 5.688h4.83Zm6.35-10.512c1.58 0 2.77-1.224 2.77-2.736 0-1.548-1.19-2.736-2.77-2.736-1.59 0-2.77 1.188-2.77 2.736 0 1.512 1.18 2.736 2.77 2.736Zm1.8 6.264h-4.14l-1.48 8.352h3.31l2.31-8.352Zm-173.17 31.784-3.56-1.62c-.8 1.62-2.49 2.592-4.54 2.592-3.02 0-5.26-2.304-5.26-5.292 0-3.024 2.2-5.328 5.22-5.328 1.91 0 3.5.936 4.22 2.34l3.38-1.908c-1.3-2.592-4.18-4.284-7.6-4.284-5.22 0-9.18 3.96-9.18 9.18s4 9.144 9.22 9.144c3.67 0 6.77-1.908 8.1-4.824Zm15.36-13.14v2.376c-.94-1.584-3.28-2.736-5.62-2.736-4.75 0-8.46 4.032-8.46 9.144 0 5.148 3.71 9.18 8.46 9.18 2.34 0 4.68-1.152 5.62-2.736V920h3.99v-17.604h-3.99Zm-4.79 14.148c-3.02 0-5.33-2.304-5.33-5.364s2.31-5.328 5.33-5.328c2.02 0 3.92 1.116 4.79 2.664v5.4c-.87 1.512-2.81 2.628-4.79 2.628Zm17.02-21.744h-4V920h4v-25.2Zm20.33 20.736-3.57-1.62c-.79 1.62-2.48 2.592-4.53 2.592-3.03 0-5.26-2.304-5.26-5.292 0-3.024 2.2-5.328 5.22-5.328 1.91 0 3.49.936 4.21 2.34l3.39-1.908c-1.3-2.592-4.18-4.284-7.6-4.284-5.22 0-9.18 3.96-9.18 9.18s4 9.144 9.22 9.144c3.67 0 6.77-1.908 8.1-4.824Zm15.52-13.14v11.484c-.9 1.512-2.63 2.484-4.39 2.484-2.52 0-4.18-1.728-4.18-4.572v-9.396h-4v10.008c0 4.896 2.78 7.956 7.2 7.956 2.2 0 4.32-1.044 5.37-2.736V920h4.03v-17.604h-4.03Zm12.24-7.596h-3.99V920h3.99v-25.2Zm17.09 7.596v2.376c-.93-1.584-3.27-2.736-5.61-2.736-4.76 0-8.46 4.032-8.46 9.144 0 5.148 3.7 9.18 8.46 9.18 2.34 0 4.68-1.152 5.61-2.736V920h4v-17.604h-4Zm-4.79 14.148c-3.02 0-5.32-2.304-5.32-5.364s2.3-5.328 5.32-5.328c2.02 0 3.93 1.116 4.79 2.664v5.4c-.86 1.512-2.81 2.628-4.79 2.628Zm23.25-.252a5.47 5.47 0 0 1-1.37.216c-1.76 0-3.2-1.224-3.2-3.276v-7.02h4.61v-3.816h-4.61v-4.716h-4v4.716h-3.38v3.816h3.38v7.2c0 4.356 2.74 6.84 6.63 6.84.75 0 1.58-.144 2.16-.432l-.22-3.528Zm19.1-5.868c0-4.716-3.71-8.388-8.46-8.388-5.08 0-9.07 3.96-9.07 9.072 0 5.256 4.07 9.252 9.14 9.252 3.64 0 6.59-1.44 7.89-3.816l-3.21-2.052c-.83 1.368-2.63 2.232-4.61 2.232-2.73 0-4.6-1.584-5.14-4.212h13.32c.1-.504.14-1.62.14-2.088Zm-13.39-1.332c.61-2.196 2.34-3.42 4.71-3.42 2.42 0 4.14 1.44 4.47 3.42h-9.18Zm23.07 11.304c4.03 0 6.87-2.304 6.87-5.472 0-6.516-9.86-4.68-9.86-7.668 0-1.152.97-1.872 2.45-1.872 1.47 0 3.99.648 5.4 1.872l1.58-3.096c-1.58-1.44-4.14-2.124-6.59-2.124-4.03 0-6.84 2.268-6.84 5.544 0 6.516 9.79 4.248 9.79 7.488 0 1.116-1.15 1.944-2.91 1.944-1.98 0-4.57-.9-5.94-2.196l-1.59 3.024c1.73 1.548 4.79 2.556 7.64 2.556Zm18.23-25.596V920h4.22v-17.064L1668.98 920h3.64v-25.2h-4.25v17.064l-11.91-17.064h-3.68Zm24.44 0V920h14.87v-4.032h-10.66v-7.164h9.5v-4.032h-9.5v-5.94h10.66V894.8h-14.87Zm35.87 25.2h4.57l-10.04-25.2h-3.53l-10.04 25.2h4.46l1.98-5.04h10.66l1.94 5.04Zm-11.05-9.072 3.78-9.648 3.74 9.648h-7.52Zm37.54 9.072-6.88-10.584c2.96-1.008 4.79-3.636 4.79-7.128 0-4.212-3.53-7.488-7.74-7.488h-9.47V920h4.22v-10.116h3.7l6.27 10.116h5.11Zm-15.08-21.132h5.11c2.09 0 3.63 1.44 3.63 3.42 0 2.052-1.54 3.564-3.63 3.564h-5.11v-6.984Zm-233.2 35.492v2.34c-.94-1.548-3.28-2.664-5.62-2.664-4.75 0-8.46 3.924-8.46 8.928 0 5.04 3.71 9 8.46 9 2.34 0 4.68-1.152 5.62-2.664v1.98c0 2.628-2.16 4.464-4.86 4.464-2.27 0-4.43-.72-5.83-2.088l-2.02 2.772c1.62 1.8 4.93 2.916 7.99 2.916 5.01 0 8.72-3.132 8.72-7.992V934.36h-4Zm-4.79 13.86c-3.02 0-5.33-2.232-5.33-5.256 0-2.988 2.31-5.22 5.33-5.22 2.02 0 3.93 1.08 4.79 2.592v5.328c-.86 1.476-2.81 2.556-4.79 2.556Zm26.2-13.824v2.376c-.94-1.584-3.28-2.736-5.62-2.736-4.75 0-8.46 4.032-8.46 9.144 0 5.148 3.71 9.18 8.46 9.18 2.34 0 4.68-1.152 5.62-2.736V952h4v-17.604h-4Zm-4.79 14.148c-3.02 0-5.33-2.304-5.33-5.364s2.31-5.328 5.33-5.328c2.02 0 3.93 1.116 4.79 2.664v5.4c-.86 1.512-2.81 2.628-4.79 2.628Zm19.54 3.852c4.03 0 6.88-2.304 6.88-5.472 0-6.516-9.87-4.68-9.87-7.668 0-1.152.97-1.872 2.45-1.872 1.48 0 4 .648 5.4 1.872l1.58-3.096c-1.58-1.44-4.14-2.124-6.58-2.124-4.04 0-6.84 2.268-6.84 5.544 0 6.516 9.79 4.248 9.79 7.488 0 1.116-1.15 1.944-2.92 1.944-1.98 0-4.57-.9-5.94-2.196l-1.58 3.024c1.73 1.548 4.79 2.556 7.63 2.556Zm30.62-18v11.484c-.9 1.512-2.63 2.484-4.39 2.484-2.52 0-4.18-1.728-4.18-4.572v-9.396h-3.99v10.008c0 4.896 2.77 7.956 7.2 7.956 2.19 0 4.32-1.044 5.36-2.736V952h4.03v-17.604h-4.03Zm14.77 18c4.03 0 6.87-2.304 6.87-5.472 0-6.516-9.86-4.68-9.86-7.668 0-1.152.97-1.872 2.45-1.872 1.47 0 3.99.648 5.4 1.872l1.58-3.096c-1.58-1.44-4.14-2.124-6.59-2.124-4.03 0-6.84 2.268-6.84 5.544 0 6.516 9.8 4.248 9.8 7.488 0 1.116-1.16 1.944-2.92 1.944-1.98 0-4.57-.9-5.94-2.196l-1.58 3.024c1.72 1.548 4.78 2.556 7.63 2.556Zm23.18-18v2.376c-.94-1.584-3.28-2.736-5.62-2.736-4.75 0-8.46 4.032-8.46 9.144 0 5.148 3.71 9.18 8.46 9.18 2.34 0 4.68-1.152 5.62-2.736V952h4v-17.604h-4Zm-4.79 14.148c-3.02 0-5.33-2.304-5.33-5.364s2.31-5.328 5.33-5.328c2.02 0 3.93 1.116 4.79 2.664v5.4c-.86 1.512-2.81 2.628-4.79 2.628Zm26.2-14.184v2.34c-.94-1.548-3.28-2.664-5.62-2.664-4.75 0-8.46 3.924-8.46 8.928 0 5.04 3.71 9 8.46 9 2.34 0 4.68-1.152 5.62-2.664v1.98c0 2.628-2.16 4.464-4.86 4.464-2.27 0-4.43-.72-5.83-2.088l-2.02 2.772c1.62 1.8 4.93 2.916 7.99 2.916 5.01 0 8.72-3.132 8.72-7.992V934.36h-4Zm-4.79 13.86c-3.02 0-5.33-2.232-5.33-5.256 0-2.988 2.31-5.22 5.33-5.22 2.02 0 3.93 1.08 4.79 2.592v5.328c-.86 1.476-2.81 2.556-4.79 2.556Zm29.66-5.796c0-4.716-3.71-8.388-8.46-8.388-5.08 0-9.08 3.96-9.08 9.072 0 5.256 4.07 9.252 9.15 9.252 3.63 0 6.59-1.44 7.88-3.816l-3.2-2.052c-.83 1.368-2.63 2.232-4.61 2.232-2.74 0-4.61-1.584-5.15-4.212h13.32c.11-.504.15-1.62.15-2.088Zm-13.4-1.332c.62-2.196 2.34-3.42 4.72-3.42 2.41 0 4.14 1.44 4.46 3.42h-9.18Zm32.85-7.056c-5.15 0-9.11 3.96-9.11 9.18s3.96 9.144 9.11 9.144c5.15 0 9.15-3.924 9.15-9.144 0-5.22-4-9.18-9.15-9.18Zm0 3.852c2.92 0 5.19 2.304 5.19 5.328 0 2.988-2.27 5.292-5.19 5.292-2.91 0-5.15-2.304-5.15-5.292 0-3.024 2.24-5.328 5.15-5.328Zm21.9-3.852c-2.24 0-4.32 1.044-5.4 2.736v-2.376h-4V952h4v-11.52c.9-1.512 2.62-2.448 4.42-2.448 2.49 0 4.14 1.728 4.14 4.572V952h4.04v-10.044c0-4.86-2.81-7.92-7.2-7.92ZM1698.7 952h3.17l4.17-11.412 4.18 11.412h3.2l6.37-17.604h-4.28l-3.71 11.412-4.14-11.412h-3.24l-4.1 11.412-3.71-11.412h-4.28L1698.7 952Zm36.06-17.604v2.376c-.94-1.584-3.28-2.736-5.62-2.736-4.75 0-8.46 4.032-8.46 9.144 0 5.148 3.71 9.18 8.46 9.18 2.34 0 4.68-1.152 5.62-2.736V952h3.99v-17.604h-3.99Zm-4.79 14.148c-3.02 0-5.33-2.304-5.33-5.364s2.31-5.328 5.33-5.328c2.02 0 3.92 1.116 4.79 2.664v5.4c-.87 1.512-2.81 2.628-4.79 2.628Zm21.52-14.508c-1.62 0-3.6 1.08-4.5 2.772v-2.412h-4V952h4v-11.232c.93-1.944 2.84-3.024 4.17-3.024.69 0 1.48.144 2.09.36l.25-3.78c-.5-.18-1.18-.288-2.01-.288Zm16.7-7.236v9.972c-.94-1.584-3.28-2.736-5.62-2.736-4.75 0-8.46 4.032-8.46 9.144 0 5.148 3.71 9.18 8.46 9.18 2.34 0 4.68-1.152 5.62-2.736V952h4v-25.2h-4Zm-4.79 21.744c-3.02 0-5.33-2.304-5.33-5.364s2.31-5.328 5.33-5.328c2.02 0 3.93 1.116 4.79 2.664v5.4c-.86 1.512-2.81 2.628-4.79 2.628ZM785.512 1192.44c-4.968 0-8.496 3.13-8.496 7.24 0 9.18 13.356 5.86 13.356 11.08 0 2.13-1.908 3.53-4.68 3.53-3.096 0-5.328-1.47-7.272-3.35l-2.7 3.1c2.196 2.45 6.12 4.32 9.972 4.32 5.616 0 9-3.6 9-7.63 0-9.11-13.428-6.01-13.428-11.38 0-1.69 1.62-2.84 3.924-2.84 2.268 0 4.752 1.08 6.444 2.81l2.448-3.28c-1.728-2.05-5.328-3.6-8.568-3.6Zm29.197 15.98c0-4.71-3.708-8.38-8.46-8.38-5.076 0-9.072 3.96-9.072 9.07 0 5.25 4.068 9.25 9.144 9.25 3.636 0 6.588-1.44 7.884-3.82l-3.204-2.05c-.828 1.37-2.628 2.23-4.608 2.23-2.736 0-4.608-1.58-5.148-4.21h13.32c.108-.5.144-1.62.144-2.09Zm-13.392-1.33c.612-2.19 2.34-3.42 4.716-3.42 2.412 0 4.14 1.44 4.464 3.42h-9.18Zm26.125-7.05c-2.232 0-4.32 1.04-5.4 2.73v-2.37h-3.996v17.6h3.996v-11.52c.9-1.51 2.628-2.45 4.428-2.45 2.484 0 4.14 1.73 4.14 4.57v9.4h4.032v-10.04c0-4.86-2.808-7.92-7.2-7.92Zm24.592-7.24v9.97c-.936-1.58-3.276-2.73-5.616-2.73-4.752 0-8.46 4.03-8.46 9.14 0 5.15 3.708 9.18 8.46 9.18 2.34 0 4.68-1.15 5.616-2.74v2.38h3.996v-25.2h-3.996Zm-4.788 21.74c-3.024 0-5.328-2.3-5.328-5.36 0-3.06 2.304-5.33 5.328-5.33 2.016 0 3.924 1.12 4.788 2.67v5.4c-.864 1.51-2.808 2.62-4.788 2.62Zm19.539 3.86c4.032 0 6.876-2.31 6.876-5.48 0-6.51-9.864-4.68-9.864-7.66 0-1.16.972-1.88 2.448-1.88s3.996.65 5.4 1.88l1.584-3.1c-1.584-1.44-4.14-2.12-6.588-2.12-4.032 0-6.84 2.26-6.84 5.54 0 6.52 9.792 4.25 9.792 7.49 0 1.11-1.152 1.94-2.916 1.94-1.98 0-4.572-.9-5.94-2.19l-1.584 3.02c1.728 1.55 4.788 2.56 7.632 2.56Zm24.574 0c4.032 0 6.876-2.31 6.876-5.48 0-6.51-9.864-4.68-9.864-7.66 0-1.16.972-1.88 2.448-1.88s3.996.65 5.4 1.88l1.584-3.1c-1.584-1.44-4.14-2.12-6.588-2.12-4.032 0-6.84 2.26-6.84 5.54 0 6.52 9.792 4.25 9.792 7.49 0 1.11-1.152 1.94-2.916 1.94-1.98 0-4.572-.9-5.94-2.19l-1.584 3.02c1.728 1.55 4.788 2.56 7.632 2.56Zm12.164-26.18c-1.404 0-2.556 1.19-2.556 2.56 0 1.44 1.152 2.59 2.556 2.59a2.603 2.603 0 0 0 2.592-2.59c0-1.37-1.188-2.56-2.592-2.56Zm-2.016 8.18v17.6h3.996v-17.6h-3.996Zm21.402-.04v2.34c-.936-1.55-3.276-2.66-5.616-2.66-4.752 0-8.46 3.92-8.46 8.92 0 5.04 3.708 9 8.46 9 2.34 0 4.68-1.15 5.616-2.66v1.98c0 2.63-2.16 4.46-4.86 4.46-2.268 0-4.428-.72-5.832-2.08l-2.016 2.77c1.62 1.8 4.932 2.91 7.992 2.91 5.004 0 8.712-3.13 8.712-7.99v-16.99h-3.996Zm-4.788 13.86c-3.024 0-5.328-2.23-5.328-5.26 0-2.98 2.304-5.22 5.328-5.22 2.016 0 3.924 1.08 4.788 2.6v5.32c-.864 1.48-2.808 2.56-4.788 2.56Zm22.419-14.18c-2.232 0-4.32 1.04-5.4 2.73v-2.37h-3.996v17.6h3.996v-11.52c.9-1.51 2.628-2.45 4.428-2.45 2.484 0 4.14 1.73 4.14 4.57v9.4h4.032v-10.04c0-4.86-2.808-7.92-7.2-7.92Zm28.048 8.38c0-4.71-3.708-8.38-8.46-8.38-5.076 0-9.072 3.96-9.072 9.07 0 5.25 4.068 9.25 9.144 9.25 3.636 0 6.588-1.44 7.884-3.82l-3.204-2.05c-.828 1.37-2.628 2.23-4.608 2.23-2.736 0-4.608-1.58-5.148-4.21h13.32c.108-.5.144-1.62.144-2.09Zm-13.392-1.33c.612-2.19 2.34-3.42 4.716-3.42 2.412 0 4.14 1.44 4.464 3.42h-9.18Zm29.588-14.29v9.97c-.936-1.58-3.276-2.73-5.616-2.73-4.752 0-8.46 4.03-8.46 9.14 0 5.15 3.708 9.18 8.46 9.18 2.34 0 4.68-1.15 5.616-2.74v2.38h3.996v-25.2h-3.996Zm-4.788 21.74c-3.024 0-5.328-2.3-5.328-5.36 0-3.06 2.304-5.33 5.328-5.33 2.016 0 3.924 1.12 4.788 2.67v5.4c-.864 1.51-2.808 2.62-4.788 2.62Zm21.114-21.74v25.2h14.87v-4.03h-10.66v-7.17h9.5v-4.03h-9.5v-5.94h10.66v-4.03h-14.87Zm28.15 21.49c-.36.11-.94.22-1.37.22-1.76 0-3.2-1.23-3.2-3.28v-7.02h4.6v-3.81h-4.6v-4.72h-4v4.72h-3.38v3.81h3.38v7.2c0 4.36 2.74 6.84 6.62 6.84.76 0 1.59-.14 2.16-.43l-.21-3.53Zm12.77-14.25c-2.23 0-4.32 1.04-5.36 2.73v-9.97h-4v25.2h4v-11.52c.86-1.51 2.63-2.45 4.39-2.45 2.52 0 4.14 1.73 4.14 4.57v9.4h4.03v-10.04c0-4.86-2.77-7.92-7.2-7.92Zm28.09 8.38c0-4.71-3.71-8.38-8.46-8.38-5.08 0-9.07 3.96-9.07 9.07 0 5.25 4.07 9.25 9.14 9.25 3.64 0 6.59-1.44 7.89-3.82l-3.21-2.05c-.83 1.37-2.63 2.23-4.61 2.23-2.73 0-4.6-1.58-5.14-4.21h13.32c.1-.5.14-1.62.14-2.09Zm-13.39-1.33c.61-2.19 2.34-3.42 4.71-3.42 2.42 0 4.14 1.44 4.47 3.42h-9.18Zm25.22-7.05c-1.62 0-3.6 1.08-4.5 2.77v-2.41h-3.99v17.6h3.99v-11.23c.94-1.95 2.85-3.03 4.18-3.03.68 0 1.47.15 2.09.36l.25-3.78c-.51-.18-1.19-.28-2.02-.28Zm20.16 8.38c0-4.71-3.71-8.38-8.46-8.38-5.07 0-9.07 3.96-9.07 9.07 0 5.25 4.07 9.25 9.14 9.25 3.64 0 6.59-1.44 7.89-3.82l-3.21-2.05c-.82 1.37-2.62 2.23-4.6 2.23-2.74 0-4.61-1.58-5.15-4.21h13.32c.11-.5.14-1.62.14-2.09Zm-13.39-1.33c.61-2.19 2.34-3.42 4.72-3.42 2.41 0 4.14 1.44 4.46 3.42h-9.18Zm29.29-6.69v11.48c-.9 1.51-2.63 2.48-4.39 2.48-2.52 0-4.18-1.72-4.18-4.57v-9.39h-3.99v10c0 4.9 2.77 7.96 7.2 7.96 2.19 0 4.32-1.04 5.36-2.74v2.38h4.03v-17.6h-4.03Zm28.66-.36c-2.55 0-4.57 1.44-5.76 2.84-1.11-1.94-2.88-2.84-5.29-2.84-2.74 0-4.5 1.47-5.36 2.66v-2.3h-4v17.6h4v-11.81c.72-1.4 2.19-2.45 3.99-2.45 2.23 0 3.78 1.62 3.78 4.25V1218h4.03v-11.23l-.1-.61c.79-1.34 2.41-2.42 3.99-2.42 2.38 0 3.85 1.62 3.85 4.25V1218h4.07v-10.76c0-4.36-2.95-7.2-7.2-7.2Zm29.54 14.25c-.36.11-.93.22-1.37.22-1.76 0-3.2-1.23-3.2-3.28v-7.02h4.61v-3.81h-4.61v-4.72h-4v4.72h-3.38v3.81h3.38v7.2c0 4.36 2.74 6.84 6.63 6.84.75 0 1.58-.14 2.16-.43l-.22-3.53Zm19.58 3.71-6.44-9.11 6.01-8.49h-4.75l-3.67 5.14-3.64-5.14h-4.86l6.08 8.53-6.44 9.07h4.79l4.03-5.69 4.07 5.69h4.82Zm-405.49 14.4v2.37c-.936-1.58-3.276-2.73-5.616-2.73-4.752 0-8.46 4.03-8.46 9.14 0 5.15 3.708 9.18 8.46 9.18 2.34 0 4.68-1.15 5.616-2.74v2.38h3.996v-17.6H790.3Zm-4.788 14.14c-3.024 0-5.328-2.3-5.328-5.36 0-3.06 2.304-5.33 5.328-5.33 2.016 0 3.924 1.12 4.788 2.67v5.4c-.864 1.51-2.808 2.62-4.788 2.62Zm19.538 3.86c4.032 0 6.876-2.31 6.876-5.48 0-6.51-9.864-4.68-9.864-7.66 0-1.16.972-1.88 2.448-1.88s3.996.65 5.4 1.88l1.584-3.1c-1.584-1.44-4.14-2.12-6.588-2.12-4.032 0-6.84 2.26-6.84 5.54 0 6.52 9.792 4.25 9.792 7.49 0 1.11-1.152 1.94-2.916 1.94-1.98 0-4.572-.9-5.94-2.19l-1.584 3.02c1.728 1.55 4.788 2.56 7.632 2.56Zm27.67-18.36c-2.34 0-4.68 1.15-5.616 2.7v-2.34h-3.996v23.79h3.996v-8.57c.936 1.59 3.276 2.74 5.616 2.74 4.752 0 8.46-4.03 8.46-9.14 0-5.15-3.708-9.18-8.46-9.18Zm-.828 14.5c-2.016 0-3.924-1.11-4.788-2.66v-5.4c.864-1.51 2.808-2.63 4.788-2.63 3.024 0 5.328 2.27 5.328 5.37 0 3.06-2.304 5.32-5.328 5.32Zm25.486-14.14v2.37c-.936-1.58-3.276-2.73-5.616-2.73-4.752 0-8.46 4.03-8.46 9.14 0 5.15 3.708 9.18 8.46 9.18 2.34 0 4.68-1.15 5.616-2.74v2.38h3.996v-17.6h-3.996Zm-4.788 14.14c-3.024 0-5.328-2.3-5.328-5.36 0-3.06 2.304-5.33 5.328-5.33 2.016 0 3.924 1.12 4.788 2.67v5.4c-.864 1.51-2.808 2.62-4.788 2.62Zm21.518-14.5c-1.62 0-3.6 1.08-4.5 2.77v-2.41h-3.996v17.6h3.996v-11.23c.936-1.95 2.844-3.03 4.176-3.03.684 0 1.476.15 2.088.36l.252-3.78c-.504-.18-1.188-.28-2.016-.28Zm16.704.36v2.37c-.936-1.58-3.276-2.73-5.616-2.73-4.752 0-8.46 4.03-8.46 9.14 0 5.15 3.708 9.18 8.46 9.18 2.34 0 4.68-1.15 5.616-2.74v2.38h3.996v-17.6h-3.996Zm-4.788 14.14c-3.024 0-5.328-2.3-5.328-5.36 0-3.06 2.304-5.33 5.328-5.33 2.016 0 3.924 1.12 4.788 2.67v5.4c-.864 1.51-2.808 2.62-4.788 2.62Zm33.434-14.5c-2.556 0-4.572 1.44-5.76 2.84-1.116-1.94-2.88-2.84-5.292-2.84-2.736 0-4.5 1.47-5.364 2.66v-2.3h-3.996v17.6h3.996v-11.81c.72-1.4 2.196-2.45 3.996-2.45 2.232 0 3.78 1.62 3.78 4.25V1250h4.032v-11.23l-.108-.61c.792-1.34 2.412-2.42 3.996-2.42 2.376 0 3.852 1.62 3.852 4.25V1250h4.068v-10.76c0-4.36-2.952-7.2-7.2-7.2Zm28.036 8.38c0-4.71-3.708-8.38-8.46-8.38-5.076 0-9.072 3.96-9.072 9.07 0 5.25 4.068 9.25 9.144 9.25 3.636 0 6.588-1.44 7.884-3.82l-3.204-2.05c-.828 1.37-2.628 2.23-4.608 2.23-2.736 0-4.608-1.58-5.148-4.21h13.32c.108-.5.144-1.62.144-2.09Zm-13.392-1.33c.612-2.19 2.34-3.42 4.716-3.42 2.412 0 4.14 1.44 4.464 3.42h-9.18Zm26.461 7.2c-.36.11-.936.22-1.368.22-1.764 0-3.204-1.23-3.204-3.28v-7.02h4.608v-3.81h-4.608v-4.72h-3.996v4.72h-3.384v3.81h3.384v7.2c0 4.36 2.736 6.84 6.624 6.84.756 0 1.584-.14 2.16-.43l-.216-3.53Zm19.099-5.87c0-4.71-3.708-8.38-8.46-8.38-5.076 0-9.072 3.96-9.072 9.07 0 5.25 4.068 9.25 9.144 9.25 3.636 0 6.588-1.44 7.884-3.82l-3.204-2.05c-.828 1.37-2.628 2.23-4.608 2.23-2.736 0-4.608-1.58-5.148-4.21h13.32c.108-.5.144-1.62.144-2.09Zm-13.392-1.33c.612-2.19 2.34-3.42 4.716-3.42 2.412 0 4.14 1.44 4.464 3.42h-9.18Zm25.225-7.05c-1.62 0-3.6 1.08-4.5 2.77v-2.41h-3.996v17.6h3.996v-11.23c.936-1.95 2.844-3.03 4.176-3.03.684 0 1.476.15 2.088.36l.252-3.78c-.504-.18-1.188-.28-2.016-.28Zm21.015 0c-5.15 0-9.11 3.96-9.11 9.18s3.96 9.14 9.11 9.14c5.15 0 9.15-3.92 9.15-9.14 0-5.22-4-9.18-9.15-9.18Zm0 3.85c2.92 0 5.19 2.3 5.19 5.33 0 2.98-2.27 5.29-5.19 5.29-2.91 0-5.15-2.31-5.15-5.29 0-3.03 2.24-5.33 5.15-5.33Zm17.91-4.9c0-2.01 1.44-3.24 3.2-3.24.43 0 1.04.11 1.37.22l.21-3.57c-.57-.25-1.4-.39-2.16-.39-3.88 0-6.62 2.45-6.62 6.8v1.59h-3.38v3.81h3.38V1250h4v-13.79h4.6v-3.81h-4.6v-1.41Zm25.56 15.3c-.36.11-.94.22-1.37.22-1.77 0-3.21-1.23-3.21-3.28v-7.02h4.61v-3.81h-4.61v-4.72h-3.99v4.72h-3.39v3.81h3.39v7.2c0 4.36 2.73 6.84 6.62 6.84.76 0 1.59-.14 2.16-.43l-.21-3.53Zm12.77-14.25c-2.23 0-4.32 1.04-5.36 2.73v-9.97h-4v25.2h4v-11.52c.86-1.51 2.63-2.45 4.39-2.45 2.52 0 4.14 1.73 4.14 4.57v9.4h4.03v-10.04c0-4.86-2.77-7.92-7.2-7.92Zm28.09 8.38c0-4.71-3.71-8.38-8.46-8.38-5.08 0-9.07 3.96-9.07 9.07 0 5.25 4.06 9.25 9.14 9.25 3.64 0 6.59-1.44 7.88-3.82l-3.2-2.05c-.83 1.37-2.63 2.23-4.61 2.23-2.73 0-4.61-1.58-5.15-4.21h13.32c.11-.5.15-1.62.15-2.09Zm-13.39-1.33c.61-2.19 2.34-3.42 4.71-3.42 2.41 0 4.14 1.44 4.47 3.42h-9.18Zm41.88 10.91h4.57l-10.04-25.2h-3.53l-10.05 25.2h4.47l1.98-5.04h10.65l1.95 5.04Zm-11.05-9.07 3.78-9.65 3.74 9.65h-7.52Zm29.82-8.53v11.48c-.9 1.51-2.63 2.48-4.39 2.48-2.52 0-4.18-1.72-4.18-4.57v-9.39h-4v10c0 4.9 2.78 7.96 7.2 7.96 2.2 0 4.32-1.04 5.37-2.74v2.38h4.03v-17.6h-4.03Zm16.74-.36c-1.62 0-3.6 1.08-4.5 2.77v-2.41h-3.99v17.6h3.99v-11.23c.94-1.95 2.85-3.03 4.18-3.03.68 0 1.47.15 2.09.36l.25-3.78c-.51-.18-1.19-.28-2.02-.28Zm11.74 0c-5.15 0-9.11 3.96-9.11 9.18s3.96 9.14 9.11 9.14c5.15 0 9.14-3.92 9.14-9.14 0-5.22-3.99-9.18-9.14-9.18Zm0 3.85c2.91 0 5.18 2.3 5.18 5.33 0 2.98-2.27 5.29-5.18 5.29-2.92 0-5.15-2.31-5.15-5.29 0-3.03 2.23-5.33 5.15-5.33Zm20.99-3.85c-1.62 0-3.6 1.08-4.5 2.77v-2.41h-3.99v17.6h3.99v-11.23c.94-1.95 2.85-3.03 4.18-3.03.68 0 1.48.15 2.09.36l.25-3.78c-.5-.18-1.19-.28-2.02-.28Zm16.71.36v2.37c-.94-1.58-3.28-2.73-5.62-2.73-4.75 0-8.46 4.03-8.46 9.14 0 5.15 3.71 9.18 8.46 9.18 2.34 0 4.68-1.15 5.62-2.74v2.38h3.99v-17.6h-3.99Zm-4.79 14.14c-3.03 0-5.33-2.3-5.33-5.36 0-3.06 2.3-5.33 5.33-5.33 2.01 0 3.92 1.12 4.79 2.67v5.4c-.87 1.51-2.81 2.62-4.79 2.62Zm-411.95 31-3.564-1.62c-.792 1.62-2.484 2.59-4.536 2.59-3.024 0-5.256-2.31-5.256-5.29 0-3.03 2.196-5.33 5.22-5.33 1.908 0 3.492.93 4.212 2.34l3.384-1.91c-1.296-2.59-4.176-4.28-7.596-4.28-5.22 0-9.18 3.96-9.18 9.18s3.996 9.14 9.216 9.14c3.672 0 6.768-1.91 8.1-4.82Zm10.39-13.5c-5.148 0-9.108 3.96-9.108 9.18s3.96 9.14 9.108 9.14c5.148 0 9.144-3.92 9.144-9.14 0-5.22-3.996-9.18-9.144-9.18Zm0 3.85c2.916 0 5.184 2.3 5.184 5.33 0 2.98-2.268 5.29-5.184 5.29-2.916 0-5.148-2.31-5.148-5.29 0-3.03 2.232-5.33 5.148-5.33Zm21.895-3.85c-2.232 0-4.32 1.04-5.4 2.73v-2.37h-3.996v17.6h3.996v-11.52c.9-1.51 2.628-2.45 4.428-2.45 2.484 0 4.14 1.73 4.14 4.57v9.4h4.032v-10.04c0-4.86-2.808-7.92-7.2-7.92Zm20.867 14.25c-.36.11-.936.22-1.368.22-1.764 0-3.204-1.23-3.204-3.28v-7.02h4.608v-3.81h-4.608v-4.72h-3.996v4.72h-3.384v3.81h3.384v7.2c0 4.36 2.736 6.84 6.624 6.84.756 0 1.584-.14 2.16-.43l-.216-3.53Zm11.912-14.25c-1.62 0-3.6 1.08-4.5 2.77v-2.41h-3.996v17.6h3.996v-11.23c.936-1.95 2.844-3.03 4.176-3.03.684 0 1.476.15 2.088.36l.252-3.78c-.504-.18-1.188-.28-2.016-.28Zm16.704.36v2.37c-.936-1.58-3.276-2.73-5.616-2.73-4.752 0-8.46 4.03-8.46 9.14 0 5.15 3.708 9.18 8.46 9.18 2.34 0 4.68-1.15 5.616-2.74v2.38h3.996v-17.6h-3.996Zm-4.788 14.14c-3.024 0-5.328-2.3-5.328-5.36 0-3.06 2.304-5.33 5.328-5.33 2.016 0 3.924 1.12 4.788 2.67v5.4c-.864 1.51-2.808 2.62-4.788 2.62Zm29.438-1-3.564-1.62c-.792 1.62-2.484 2.59-4.536 2.59-3.024 0-5.256-2.31-5.256-5.29 0-3.03 2.196-5.33 5.22-5.33 1.908 0 3.492.93 4.212 2.34l3.384-1.91c-1.296-2.59-4.176-4.28-7.596-4.28-5.22 0-9.18 3.96-9.18 9.18s3.996 9.14 9.216 9.14c3.672 0 6.768-1.91 8.1-4.82Zm13.179.75c-.36.11-.936.22-1.368.22-1.764 0-3.204-1.23-3.204-3.28v-7.02h4.608v-3.81h-4.608v-4.72h-3.996v4.72h-3.384v3.81h3.384v7.2c0 4.36 2.736 6.84 6.624 6.84.756 0 1.584-.14 2.16-.43l-.216-3.53Zm27.743-.75-3.564-1.62c-.792 1.62-2.484 2.59-4.536 2.59-3.024 0-5.256-2.31-5.256-5.29 0-3.03 2.196-5.33 5.22-5.33 1.908 0 3.492.93 4.212 2.34l3.384-1.91c-1.296-2.59-4.176-4.28-7.596-4.28-5.22 0-9.18 3.96-9.18 9.18s3.996 9.14 9.216 9.14c3.672 0 6.768-1.91 8.1-4.82Zm15.358-13.14v2.37c-.936-1.58-3.276-2.73-5.616-2.73-4.752 0-8.46 4.03-8.46 9.14 0 5.15 3.708 9.18 8.46 9.18 2.34 0 4.68-1.15 5.616-2.74v2.38h3.996v-17.6h-3.996Zm-4.788 14.14c-3.024 0-5.328-2.3-5.328-5.36 0-3.06 2.304-5.33 5.328-5.33 2.016 0 3.924 1.12 4.788 2.67v5.4c-.864 1.51-2.808 2.62-4.788 2.62Zm17.018-21.74h-3.996v25.2h3.996v-25.2Zm8.226 0h-3.996v25.2h3.996v-25.2ZM153.304 899.8V925h14.868v-4.032h-10.656v-7.164h9.504v-4.032h-9.504v-5.94h10.656V899.8h-14.868Zm34.793 25.2-6.444-9.108 6.012-8.496h-4.752l-3.672 5.148-3.636-5.148h-4.86l6.084 8.532-6.444 9.072h4.788l4.032-5.688 4.068 5.688h4.824Zm17.8-9.576c0-4.716-3.708-8.388-8.46-8.388-5.076 0-9.072 3.96-9.072 9.072 0 5.256 4.068 9.252 9.144 9.252 3.636 0 6.588-1.44 7.884-3.816l-3.204-2.052c-.828 1.368-2.628 2.232-4.608 2.232-2.736 0-4.608-1.584-5.148-4.212h13.32c.108-.504.144-1.62.144-2.088Zm-13.392-1.332c.612-2.196 2.34-3.42 4.716-3.42 2.412 0 4.14 1.44 4.464 3.42h-9.18Zm32.828 6.444-3.564-1.62c-.792 1.62-2.484 2.592-4.536 2.592-3.024 0-5.256-2.304-5.256-5.292 0-3.024 2.196-5.328 5.22-5.328 1.908 0 3.492.936 4.212 2.34l3.384-1.908c-1.296-2.592-4.176-4.284-7.596-4.284-5.22 0-9.18 3.96-9.18 9.18s3.996 9.144 9.216 9.144c3.672 0 6.768-1.908 8.1-4.824Zm15.519-13.14v11.484c-.9 1.512-2.628 2.484-4.392 2.484-2.52 0-4.176-1.728-4.176-4.572v-9.396h-3.996v10.008c0 4.896 2.772 7.956 7.2 7.956 2.196 0 4.32-1.044 5.364-2.736V925h4.032v-17.604h-4.032Zm18.473 13.896a5.44 5.44 0 0 1-1.368.216c-1.764 0-3.204-1.224-3.204-3.276v-7.02h4.608v-3.816h-4.608v-4.716h-3.996v4.716h-3.384v3.816h3.384v7.2c0 4.356 2.736 6.84 6.624 6.84.756 0 1.584-.144 2.16-.432l-.216-3.528Zm19.099-5.868c0-4.716-3.708-8.388-8.46-8.388-5.076 0-9.072 3.96-9.072 9.072 0 5.256 4.068 9.252 9.144 9.252 3.636 0 6.588-1.44 7.884-3.816l-3.204-2.052c-.828 1.368-2.628 2.232-4.608 2.232-2.736 0-4.608-1.584-5.148-4.212h13.32c.108-.504.144-1.62.144-2.088Zm-13.392-1.332c.612-2.196 2.34-3.42 4.716-3.42 2.412 0 4.14 1.44 4.464 3.42h-9.18Zm23.069 11.304c4.032 0 6.876-2.304 6.876-5.472 0-6.516-9.864-4.68-9.864-7.668 0-1.152.972-1.872 2.448-1.872s3.996.648 5.4 1.872l1.584-3.096c-1.584-1.44-4.14-2.124-6.588-2.124-4.032 0-6.84 2.268-6.84 5.544 0 6.516 9.792 4.248 9.792 7.488 0 1.116-1.152 1.944-2.916 1.944-1.98 0-4.572-.9-5.94-2.196l-1.584 3.024c1.728 1.548 4.788 2.556 7.632 2.556Zm18.238-25.596V925h14.868v-4.032h-10.656v-7.164h9.504v-4.032h-9.504v-5.94h10.656V899.8h-14.868Zm28.15 21.492a5.44 5.44 0 0 1-1.368.216c-1.764 0-3.204-1.224-3.204-3.276v-7.02h4.608v-3.816h-4.608v-4.716h-3.996v4.716h-3.384v3.816h3.384v7.2c0 4.356 2.736 6.84 6.624 6.84.756 0 1.584-.144 2.16-.432l-.216-3.528Zm12.776-14.256c-2.232 0-4.32 1.044-5.364 2.736V899.8h-3.996V925h3.996v-11.52c.864-1.512 2.628-2.448 4.392-2.448 2.52 0 4.14 1.728 4.14 4.572V925h4.032v-10.044c0-4.86-2.772-7.92-7.2-7.92Zm28.085 8.388c0-4.716-3.708-8.388-8.46-8.388-5.076 0-9.072 3.96-9.072 9.072 0 5.256 4.068 9.252 9.144 9.252 3.636 0 6.588-1.44 7.884-3.816l-3.204-2.052c-.828 1.368-2.628 2.232-4.608 2.232-2.736 0-4.608-1.584-5.148-4.212h13.32c.108-.504.144-1.62.144-2.088Zm-13.392-1.332c.612-2.196 2.34-3.42 4.716-3.42 2.412 0 4.14 1.44 4.464 3.42h-9.18Zm25.225-7.056c-1.621 0-3.6 1.08-4.5 2.772v-2.412h-3.996V925h3.996v-11.232c.936-1.944 2.844-3.024 4.176-3.024a6.69 6.69 0 0 1 2.088.36l.252-3.78c-.504-.18-1.188-.288-2.016-.288Zm20.159 8.388c0-4.716-3.708-8.388-8.46-8.388-5.076 0-9.072 3.96-9.072 9.072 0 5.256 4.068 9.252 9.144 9.252 3.636 0 6.588-1.44 7.884-3.816l-3.204-2.052c-.828 1.368-2.628 2.232-4.608 2.232-2.736 0-4.608-1.584-5.148-4.212h13.32c.108-.504.144-1.62.144-2.088Zm-13.392-1.332c.612-2.196 2.34-3.42 4.716-3.42 2.412 0 4.14 1.44 4.464 3.42h-9.18Zm29.293-6.696v11.484c-.9 1.512-2.628 2.484-4.392 2.484-2.52 0-4.176-1.728-4.176-4.572v-9.396h-3.996v10.008c0 4.896 2.772 7.956 7.2 7.956 2.196 0 4.32-1.044 5.364-2.736V925h4.032v-17.604h-4.032Zm28.66-.36c-2.556 0-4.572 1.44-5.76 2.844-1.116-1.944-2.88-2.844-5.292-2.844-2.736 0-4.5 1.476-5.364 2.664v-2.304h-3.996V925h3.996v-11.808a4.483 4.483 0 0 1 3.996-2.448c2.232 0 3.78 1.62 3.78 4.248V925h4.032v-11.232l-.108-.612c.792-1.332 2.412-2.412 3.996-2.412 2.376 0 3.852 1.62 3.852 4.248V925h4.068v-10.764c0-4.356-2.952-7.2-7.2-7.2Zm29.539 14.256a5.44 5.44 0 0 1-1.368.216c-1.764 0-3.204-1.224-3.204-3.276v-7.02h4.608v-3.816h-4.608v-4.716h-3.996v4.716h-3.384v3.816h3.384v7.2c0 4.356 2.736 6.84 6.624 6.84.756 0 1.584-.144 2.16-.432l-.216-3.528Zm19.58 3.708-6.444-9.108 6.012-8.496h-4.752l-3.672 5.148-3.636-5.148h-4.86l6.084 8.532L483.31 925h4.788l4.032-5.688 4.068 5.688h4.824Zm6.351-10.512c1.584 0 2.772-1.224 2.772-2.736 0-1.548-1.188-2.736-2.772-2.736-1.584 0-2.772 1.188-2.772 2.736 0 1.512 1.188 2.736 2.772 2.736Zm1.8 6.264h-4.14l-1.476 8.352h3.312l2.304-8.352ZM169.54 952.536l-3.564-1.62c-.792 1.62-2.484 2.592-4.536 2.592-3.024 0-5.256-2.304-5.256-5.292 0-3.024 2.196-5.328 5.22-5.328 1.908 0 3.492.936 4.212 2.34L169 943.32c-1.296-2.592-4.176-4.284-7.596-4.284-5.22 0-9.18 3.96-9.18 9.18s3.996 9.144 9.216 9.144c3.672 0 6.768-1.908 8.1-4.824Zm15.358-13.14v2.376c-.936-1.584-3.276-2.736-5.616-2.736-4.752 0-8.46 4.032-8.46 9.144 0 5.148 3.708 9.18 8.46 9.18 2.34 0 4.68-1.152 5.616-2.736V957h3.996v-17.604h-3.996Zm-4.788 14.148c-3.024 0-5.328-2.304-5.328-5.364s2.304-5.328 5.328-5.328c2.016 0 3.924 1.116 4.788 2.664v5.4c-.864 1.512-2.808 2.628-4.788 2.628Zm17.018-21.744h-3.996V957h3.996v-25.2Zm20.33 20.736-3.564-1.62c-.792 1.62-2.484 2.592-4.536 2.592-3.024 0-5.256-2.304-5.256-5.292 0-3.024 2.196-5.328 5.22-5.328 1.908 0 3.492.936 4.212 2.34l3.384-1.908c-1.296-2.592-4.176-4.284-7.596-4.284-5.22 0-9.18 3.96-9.18 9.18s3.996 9.144 9.216 9.144c3.672 0 6.768-1.908 8.1-4.824Zm15.519-13.14v11.484c-.9 1.512-2.628 2.484-4.392 2.484-2.52 0-4.176-1.728-4.176-4.572v-9.396h-3.996v10.008c0 4.896 2.772 7.956 7.2 7.956 2.196 0 4.32-1.044 5.364-2.736V957h4.032v-17.604h-4.032Zm12.245-7.596h-3.996V957h3.996v-25.2Zm17.09 7.596v2.376c-.936-1.584-3.276-2.736-5.616-2.736-4.752 0-8.46 4.032-8.46 9.144 0 5.148 3.708 9.18 8.46 9.18 2.34 0 4.68-1.152 5.616-2.736V957h3.996v-17.604h-3.996Zm-4.788 14.148c-3.024 0-5.328-2.304-5.328-5.364s2.304-5.328 5.328-5.328c2.016 0 3.924 1.116 4.788 2.664v5.4c-.864 1.512-2.808 2.628-4.788 2.628Zm23.246-.252a5.44 5.44 0 0 1-1.368.216c-1.764 0-3.204-1.224-3.204-3.276v-7.02h4.608v-3.816h-4.608v-4.716h-3.996v4.716h-3.384v3.816h3.384v7.2c0 4.356 2.736 6.84 6.624 6.84.756 0 1.584-.144 2.16-.432l-.216-3.528Zm19.099-5.868c0-4.716-3.708-8.388-8.46-8.388-5.076 0-9.072 3.96-9.072 9.072 0 5.256 4.068 9.252 9.144 9.252 3.636 0 6.588-1.44 7.884-3.816l-3.204-2.052c-.828 1.368-2.628 2.232-4.608 2.232-2.736 0-4.608-1.584-5.148-4.212h13.32c.108-.504.144-1.62.144-2.088Zm-13.392-1.332c.612-2.196 2.34-3.42 4.716-3.42 2.412 0 4.14 1.44 4.464 3.42h-9.18Zm23.069 11.304c4.032 0 6.876-2.304 6.876-5.472 0-6.516-9.864-4.68-9.864-7.668 0-1.152.972-1.872 2.448-1.872s3.996.648 5.4 1.872l1.584-3.096c-1.584-1.44-4.14-2.124-6.588-2.124-4.032 0-6.84 2.268-6.84 5.544 0 6.516 9.792 4.248 9.792 7.488 0 1.116-1.152 1.944-2.916 1.944-1.98 0-4.572-.9-5.94-2.196l-1.584 3.024c1.728 1.548 4.788 2.556 7.632 2.556Zm18.238-25.596V957h14.868v-4.032h-10.656v-7.164h9.504v-4.032h-9.504v-5.94h10.656V931.8h-14.868Zm16.937 0 9.504 25.2h3.492l9.504-25.2h-4.464l-6.768 18.468-6.768-18.468h-4.5Zm25.251 25.2h4.212v-16.92l7.38 16.92h3.096l7.524-16.92V957h4.212v-25.2h-4.32l-8.64 19.008-8.388-19.008h-5.076V957Zm51.949-17.64v2.34c-.936-1.548-3.276-2.664-5.616-2.664-4.752 0-8.46 3.924-8.46 8.928 0 5.04 3.708 9 8.46 9 2.34 0 4.68-1.152 5.616-2.664v1.98c0 2.628-2.16 4.464-4.86 4.464-2.268 0-4.428-.72-5.832-2.088l-2.016 2.772c1.62 1.8 4.932 2.916 7.992 2.916 5.004 0 8.712-3.132 8.712-7.992V939.36h-3.996Zm-4.788 13.86c-3.024 0-5.328-2.232-5.328-5.256 0-2.988 2.304-5.22 5.328-5.22 2.016 0 3.924 1.08 4.788 2.592v5.328c-.864 1.476-2.808 2.556-4.788 2.556Zm26.198-13.824v2.376c-.936-1.584-3.276-2.736-5.616-2.736-4.752 0-8.46 4.032-8.46 9.144 0 5.148 3.708 9.18 8.46 9.18 2.34 0 4.68-1.152 5.616-2.736V957h3.996v-17.604h-3.996Zm-4.788 14.148c-3.024 0-5.328-2.304-5.328-5.364s2.304-5.328 5.328-5.328c2.016 0 3.924 1.116 4.788 2.664v5.4c-.864 1.512-2.808 2.628-4.788 2.628Zm19.538 3.852c4.032 0 6.876-2.304 6.876-5.472 0-6.516-9.864-4.68-9.864-7.668 0-1.152.972-1.872 2.448-1.872s3.996.648 5.4 1.872l1.584-3.096c-1.584-1.44-4.14-2.124-6.588-2.124-4.032 0-6.84 2.268-6.84 5.544 0 6.516 9.792 4.248 9.792 7.488 0 1.116-1.152 1.944-2.916 1.944-1.98 0-4.572-.9-5.94-2.196l-1.584 3.024c1.728 1.548 4.788 2.556 7.632 2.556ZM222.952 577.8h-9.648V603h4.212v-9.72h5.436c4.644 0 8.064-3.276 8.064-7.776 0-4.428-3.42-7.704-8.064-7.704Zm0 11.448h-5.436v-7.416h5.436c2.196 0 3.816 1.584 3.816 3.672 0 2.124-1.62 3.744-3.816 3.744Zm26.527 4.176c0-4.716-3.708-8.388-8.46-8.388-5.076 0-9.072 3.96-9.072 9.072 0 5.256 4.068 9.252 9.144 9.252 3.636 0 6.588-1.44 7.884-3.816l-3.204-2.052c-.828 1.368-2.628 2.232-4.608 2.232-2.736 0-4.608-1.584-5.148-4.212h13.32c.108-.504.144-1.62.144-2.088Zm-13.392-1.332c.612-2.196 2.34-3.42 4.716-3.42 2.412 0 4.14 1.44 4.464 3.42h-9.18Zm25.224-7.056c-1.62 0-3.6 1.08-4.5 2.772v-2.412h-3.996V603h3.996v-11.232c.936-1.944 2.844-3.024 4.176-3.024a6.69 6.69 0 0 1 2.088.36l.252-3.78c-.504-.18-1.188-.288-2.016-.288Zm10.551-1.044c0-2.016 1.44-3.24 3.204-3.24.432 0 1.044.108 1.368.216l.216-3.564c-.576-.252-1.404-.396-2.16-.396-3.888 0-6.624 2.448-6.624 6.804v1.584h-3.384v3.816h3.384V603h3.996v-13.788h4.608v-3.816h-4.608v-1.404Zm14.544 1.044c-5.148 0-9.108 3.96-9.108 9.18s3.96 9.144 9.108 9.144c5.148 0 9.144-3.924 9.144-9.144 0-5.22-3.996-9.18-9.144-9.18Zm0 3.852c2.916 0 5.184 2.304 5.184 5.328 0 2.988-2.268 5.292-5.184 5.292-2.916 0-5.148-2.304-5.148-5.292 0-3.024 2.232-5.328 5.148-5.328Zm20.995-3.852c-1.62 0-3.6 1.08-4.5 2.772v-2.412h-3.996V603h3.996v-11.232c.936-1.944 2.844-3.024 4.176-3.024a6.69 6.69 0 0 1 2.088.36l.252-3.78c-.504-.18-1.188-.288-2.016-.288Zm25.311 0c-2.556 0-4.572 1.44-5.76 2.844-1.116-1.944-2.88-2.844-5.292-2.844-2.736 0-4.5 1.476-5.364 2.664v-2.304H312.3V603h3.996v-11.808a4.483 4.483 0 0 1 3.996-2.448c2.232 0 3.78 1.62 3.78 4.248V603h4.032v-11.232l-.108-.612c.792-1.332 2.412-2.412 3.996-2.412 2.376 0 3.852 1.62 3.852 4.248V603h4.068v-10.764c0-4.356-2.952-7.2-7.2-7.2Zm17.92 18.36c4.032 0 6.876-2.304 6.876-5.472 0-6.516-9.864-4.68-9.864-7.668 0-1.152.972-1.872 2.448-1.872s3.996.648 5.4 1.872l1.584-3.096c-1.584-1.44-4.14-2.124-6.588-2.124-4.032 0-6.84 2.268-6.84 5.544 0 6.516 9.792 4.248 9.792 7.488 0 1.116-1.152 1.944-2.916 1.944-1.98 0-4.572-.9-5.94-2.196L343 600.84c1.728 1.548 4.788 2.556 7.632 2.556ZM368.87 577.8V603h14.868v-4.032h-10.656v-7.164h9.504v-4.032h-9.504v-5.94h10.656V577.8H368.87Zm37.097 0h-19.692v4.032h7.74V603h4.212v-21.168h7.74V577.8Zm19.608 0v10.116h-12.204V577.8h-4.212V603h4.212v-11.052h12.204V603h4.212v-25.2h-4.212Zm26.169 7.236c-2.34 0-4.68 1.152-5.616 2.7v-2.34h-3.996v23.796h3.996v-8.568c.936 1.584 3.276 2.736 5.616 2.736 4.752 0 8.46-4.032 8.46-9.144 0-5.148-3.708-9.18-8.46-9.18Zm-.828 14.508c-2.016 0-3.924-1.116-4.788-2.664v-5.4c.864-1.512 2.808-2.628 4.788-2.628 3.024 0 5.328 2.268 5.328 5.364 0 3.06-2.304 5.328-5.328 5.328Zm25.486-14.148v2.376c-.936-1.584-3.276-2.736-5.616-2.736-4.752 0-8.46 4.032-8.46 9.144 0 5.148 3.708 9.18 8.46 9.18 2.34 0 4.68-1.152 5.616-2.736V603h3.996v-17.604h-3.996Zm-4.788 14.148c-3.024 0-5.328-2.304-5.328-5.364s2.304-5.328 5.328-5.328c2.016 0 3.924 1.116 4.788 2.664v5.4c-.864 1.512-2.808 2.628-4.788 2.628Zm25.082-14.148-4.716 11.988-4.716-11.988h-4.32l6.984 16.668-3.168 7.128h4.32l9.936-23.796h-4.32Zm14.007-.36c-5.148 0-9.108 3.96-9.108 9.18s3.96 9.144 9.108 9.144c5.148 0 9.144-3.924 9.144-9.144 0-5.22-3.996-9.18-9.144-9.18Zm0 3.852c2.916 0 5.184 2.304 5.184 5.328 0 2.988-2.268 5.292-5.184 5.292-2.916 0-5.148-2.304-5.148-5.292 0-3.024 2.232-5.328 5.148-5.328Zm25.063-3.492v11.484c-.9 1.512-2.628 2.484-4.392 2.484-2.52 0-4.176-1.728-4.176-4.572v-9.396h-3.996v10.008c0 4.896 2.772 7.956 7.2 7.956 2.196 0 4.32-1.044 5.364-2.736V603h4.032v-17.604h-4.032Zm18.473 13.896a5.44 5.44 0 0 1-1.368.216c-1.764 0-3.204-1.224-3.204-3.276v-7.02h4.608v-3.816h-4.608v-4.716h-3.996v4.716h-3.384v3.816h3.384v7.2c0 4.356 2.736 6.84 6.624 6.84.756 0 1.584-.144 2.16-.432l-.216-3.528Zm21.55 0a5.44 5.44 0 0 1-1.368.216c-1.764 0-3.204-1.224-3.204-3.276v-7.02h4.608v-3.816h-4.608v-4.716h-3.996v4.716h-3.384v3.816h3.384v7.2c0 4.356 2.736 6.84 6.624 6.84.756 0 1.584-.144 2.16-.432l-.216-3.528Zm10.676-14.256c-5.148 0-9.108 3.96-9.108 9.18s3.96 9.144 9.108 9.144c5.148 0 9.144-3.924 9.144-9.144 0-5.22-3.996-9.18-9.144-9.18Zm0 3.852c2.916 0 5.184 2.304 5.184 5.328 0 2.988-2.268 5.292-5.184 5.292-2.916 0-5.148-2.304-5.148-5.292 0-3.024 2.232-5.328 5.148-5.328Zm-363.729 28.148c-2.34 0-4.68 1.152-5.616 2.7v-2.34h-3.996v23.796h3.996v-8.568c.936 1.584 3.276 2.736 5.616 2.736 4.752 0 8.46-4.032 8.46-9.144 0-5.148-3.708-9.18-8.46-9.18Zm-.828 14.508c-2.016 0-3.924-1.116-4.788-2.664v-5.4c.864-1.512 2.808-2.628 4.788-2.628 3.024 0 5.328 2.268 5.328 5.364 0 3.06-2.304 5.328-5.328 5.328Zm21.122-14.508c-1.62 0-3.6 1.08-4.5 2.772v-2.412h-3.996V635h3.996v-11.232c.936-1.944 2.844-3.024 4.176-3.024a6.69 6.69 0 0 1 2.088.36l.252-3.78c-.504-.18-1.188-.288-2.016-.288Zm11.736 0c-5.148 0-9.108 3.96-9.108 9.18s3.96 9.144 9.108 9.144c5.148 0 9.144-3.924 9.144-9.144 0-5.22-3.996-9.18-9.144-9.18Zm0 3.852c2.916 0 5.184 2.304 5.184 5.328 0 2.988-2.268 5.292-5.184 5.292-2.916 0-5.148-2.304-5.148-5.292 0-3.024 2.232-5.328 5.148-5.328ZM281.882 635l-6.444-9.108 6.012-8.496h-4.752l-3.672 5.148-3.636-5.148h-4.86l6.084 8.532L264.17 635h4.788l4.032-5.688 4.068 5.688h4.824Zm14.775-17.604-4.716 11.988-4.716-11.988h-4.32l6.984 16.668-3.168 7.128h4.32l9.936-23.796h-4.32Zm16.815-8.172c-1.404 0-2.556 1.188-2.556 2.556 0 1.44 1.152 2.592 2.556 2.592a2.604 2.604 0 0 0 2.592-2.592c0-1.368-1.188-2.556-2.592-2.556Zm-2.016 8.172V635h3.996v-17.604h-3.996Zm17.623-.36c-2.232 0-4.32 1.044-5.4 2.736v-2.376h-3.996V635h3.996v-11.52c.9-1.512 2.628-2.448 4.428-2.448 2.484 0 4.14 1.728 4.14 4.572V635h4.032v-10.044c0-4.86-2.808-7.92-7.2-7.92Zm32.502.36v2.376c-.936-1.584-3.276-2.736-5.616-2.736-4.752 0-8.46 4.032-8.46 9.144 0 5.148 3.708 9.18 8.46 9.18 2.34 0 4.68-1.152 5.616-2.736V635h3.996v-17.604h-3.996Zm-4.788 14.148c-3.024 0-5.328-2.304-5.328-5.364s2.304-5.328 5.328-5.328c2.016 0 3.924 1.116 4.788 2.664v5.4c-.864 1.512-2.808 2.628-4.788 2.628Zm29.438-1.008-3.564-1.62c-.792 1.62-2.484 2.592-4.536 2.592-3.024 0-5.256-2.304-5.256-5.292 0-3.024 2.196-5.328 5.22-5.328 1.908 0 3.492.936 4.212 2.34l3.384-1.908c-1.296-2.592-4.176-4.284-7.596-4.284-5.22 0-9.18 3.96-9.18 9.18s3.996 9.144 9.216 9.144c3.672 0 6.768-1.908 8.1-4.824Zm18.598 0-3.564-1.62c-.792 1.62-2.484 2.592-4.536 2.592-3.024 0-5.256-2.304-5.256-5.292 0-3.024 2.196-5.328 5.22-5.328 1.908 0 3.492.936 4.212 2.34l3.384-1.908c-1.296-2.592-4.176-4.284-7.596-4.284-5.22 0-9.18 3.96-9.18 9.18s3.996 9.144 9.216 9.144c3.672 0 6.768-1.908 8.1-4.824Zm10.39-13.5c-5.148 0-9.108 3.96-9.108 9.18s3.96 9.144 9.108 9.144c5.148 0 9.144-3.924 9.144-9.144 0-5.22-3.996-9.18-9.144-9.18Zm0 3.852c2.916 0 5.184 2.304 5.184 5.328 0 2.988-2.268 5.292-5.184 5.292-2.916 0-5.148-2.304-5.148-5.292 0-3.024 2.232-5.328 5.148-5.328Zm20.995-3.852c-1.62 0-3.6 1.08-4.5 2.772v-2.412h-3.996V635h3.996v-11.232c.936-1.944 2.844-3.024 4.176-3.024a6.69 6.69 0 0 1 2.088.36l.252-3.78c-.504-.18-1.188-.288-2.016-.288Zm16.703-7.236v9.972c-.936-1.584-3.276-2.736-5.616-2.736-4.752 0-8.46 4.032-8.46 9.144 0 5.148 3.708 9.18 8.46 9.18 2.34 0 4.68-1.152 5.616-2.736V635h3.996v-25.2h-3.996Zm-4.788 21.744c-3.024 0-5.328-2.304-5.328-5.364s2.304-5.328 5.328-5.328c2.016 0 3.924 1.116 4.788 2.664v5.4c-.864 1.512-2.808 2.628-4.788 2.628Zm25.882-14.148v2.376c-.936-1.584-3.276-2.736-5.616-2.736-4.752 0-8.46 4.032-8.46 9.144 0 5.148 3.708 9.18 8.46 9.18 2.34 0 4.68-1.152 5.616-2.736V635h3.996v-17.604h-3.996Zm-4.788 14.148c-3.024 0-5.328-2.304-5.328-5.364s2.304-5.328 5.328-5.328c2.016 0 3.924 1.116 4.788 2.664v5.4c-.864 1.512-2.808 2.628-4.788 2.628Zm22.418-14.508c-2.232 0-4.32 1.044-5.4 2.736v-2.376h-3.996V635h3.996v-11.52c.9-1.512 2.628-2.448 4.428-2.448 2.484 0 4.14 1.728 4.14 4.572V635h4.032v-10.044c0-4.86-2.808-7.92-7.2-7.92Zm27.833 13.5-3.564-1.62c-.792 1.62-2.484 2.592-4.536 2.592-3.024 0-5.256-2.304-5.256-5.292 0-3.024 2.196-5.328 5.22-5.328 1.908 0 3.492.936 4.212 2.34l3.384-1.908c-1.296-2.592-4.176-4.284-7.596-4.284-5.22 0-9.18 3.96-9.18 9.18s3.996 9.144 9.216 9.144c3.672 0 6.768-1.908 8.1-4.824Zm18.813-5.112c0-4.716-3.708-8.388-8.46-8.388-5.076 0-9.072 3.96-9.072 9.072 0 5.256 4.068 9.252 9.144 9.252 3.636 0 6.588-1.44 7.884-3.816l-3.204-2.052c-.828 1.368-2.628 2.232-4.608 2.232-2.736 0-4.608-1.584-5.148-4.212h13.32c.108-.504.144-1.62.144-2.088Zm-13.392-1.332c.612-2.196 2.34-3.42 4.716-3.42 2.412 0 4.14 1.44 4.464 3.42h-9.18ZM554.214 635h3.168l4.176-11.412L565.734 635h3.204l6.372-17.604h-4.284l-3.708 11.412-4.14-11.412h-3.24l-4.104 11.412-3.708-11.412h-4.284L554.214 635Zm25.707-25.776c-1.404 0-2.556 1.188-2.556 2.556 0 1.44 1.152 2.592 2.556 2.592a2.604 2.604 0 0 0 2.592-2.592c0-1.368-1.188-2.556-2.592-2.556Zm-2.016 8.172V635h3.996v-17.604h-3.996Zm18.451 13.896a5.44 5.44 0 0 1-1.368.216c-1.764 0-3.204-1.224-3.204-3.276v-7.02h4.608v-3.816h-4.608v-4.716h-3.996v4.716h-3.384v3.816h3.384v7.2c0 4.356 2.736 6.84 6.624 6.84.756 0 1.584-.144 2.16-.432l-.216-3.528Zm12.776-14.256c-2.232 0-4.32 1.044-5.364 2.736V609.8h-3.996V635h3.996v-11.52c.864-1.512 2.628-2.448 4.392-2.448 2.52 0 4.14 1.728 4.14 4.572V635h4.032v-10.044c0-4.86-2.772-7.92-7.2-7.92ZM226.3 649.36v2.34c-.936-1.548-3.276-2.664-5.616-2.664-4.752 0-8.46 3.924-8.46 8.928 0 5.04 3.708 9 8.46 9 2.34 0 4.68-1.152 5.616-2.664v1.98c0 2.628-2.16 4.464-4.86 4.464-2.268 0-4.428-.72-5.832-2.088l-2.016 2.772c1.62 1.8 4.932 2.916 7.992 2.916 5.004 0 8.712-3.132 8.712-7.992V649.36H226.3Zm-4.788 13.86c-3.024 0-5.328-2.232-5.328-5.256 0-2.988 2.304-5.22 5.328-5.22 2.016 0 3.924 1.08 4.788 2.592v5.328c-.864 1.476-2.808 2.556-4.788 2.556Zm26.198-13.824v2.376c-.936-1.584-3.276-2.736-5.616-2.736-4.752 0-8.46 4.032-8.46 9.144 0 5.148 3.708 9.18 8.46 9.18 2.34 0 4.68-1.152 5.616-2.736V667h3.996v-17.604h-3.996Zm-4.788 14.148c-3.024 0-5.328-2.304-5.328-5.364s2.304-5.328 5.328-5.328c2.016 0 3.924 1.116 4.788 2.664v5.4c-.864 1.512-2.808 2.628-4.788 2.628Zm19.538 3.852c4.032 0 6.876-2.304 6.876-5.472 0-6.516-9.864-4.68-9.864-7.668 0-1.152.972-1.872 2.448-1.872s3.996.648 5.4 1.872l1.584-3.096c-1.584-1.44-4.14-2.124-6.588-2.124-4.032 0-6.84 2.268-6.84 5.544 0 6.516 9.792 4.248 9.792 7.488 0 1.116-1.152 1.944-2.916 1.944-1.98 0-4.572-.9-5.94-2.196l-1.584 3.024c1.728 1.548 4.788 2.556 7.632 2.556Zm27.671-18.36c-2.34 0-4.68 1.152-5.616 2.7v-2.34h-3.996v23.796h3.996v-8.568c.936 1.584 3.276 2.736 5.616 2.736 4.752 0 8.46-4.032 8.46-9.144 0-5.148-3.708-9.18-8.46-9.18Zm-.828 14.508c-2.016 0-3.924-1.116-4.788-2.664v-5.4c.864-1.512 2.808-2.628 4.788-2.628 3.024 0 5.328 2.268 5.328 5.364 0 3.06-2.304 5.328-5.328 5.328Zm21.122-14.508c-1.62 0-3.6 1.08-4.5 2.772v-2.412h-3.996V667h3.996v-11.232c.936-1.944 2.844-3.024 4.176-3.024a6.69 6.69 0 0 1 2.088.36l.252-3.78c-.504-.18-1.188-.288-2.016-.288Zm6.914-7.812c-1.404 0-2.556 1.188-2.556 2.556 0 1.44 1.152 2.592 2.556 2.592a2.604 2.604 0 0 0 2.592-2.592c0-1.368-1.188-2.556-2.592-2.556Zm-2.016 8.172V667h3.996v-17.604h-3.996Zm24.643 13.14-3.564-1.62c-.792 1.62-2.484 2.592-4.536 2.592-3.024 0-5.256-2.304-5.256-5.292 0-3.024 2.196-5.328 5.22-5.328 1.908 0 3.492.936 4.212 2.34l3.384-1.908c-1.296-2.592-4.176-4.284-7.596-4.284-5.22 0-9.18 3.96-9.18 9.18s3.996 9.144 9.216 9.144c3.672 0 6.768-1.908 8.1-4.824Zm18.813-5.112c0-4.716-3.708-8.388-8.46-8.388-5.076 0-9.072 3.96-9.072 9.072 0 5.256 4.068 9.252 9.144 9.252 3.636 0 6.588-1.44 7.884-3.816l-3.204-2.052c-.828 1.368-2.628 2.232-4.608 2.232-2.736 0-4.608-1.584-5.148-4.212h13.32c.108-.504.144-1.62.144-2.088Zm-13.392-1.332c.612-2.196 2.34-3.42 4.716-3.42 2.412 0 4.14 1.44 4.464 3.42h-9.18Zm30.291-8.1c0-2.016 1.44-3.24 3.204-3.24.432 0 1.044.108 1.368.216l.216-3.564c-.576-.252-1.404-.396-2.16-.396-3.888 0-6.624 2.448-6.624 6.804v1.584h-3.384v3.816h3.384V667h3.996v-13.788h4.608v-3.816h-4.608v-1.404Zm16.098 1.044c-1.62 0-3.6 1.08-4.5 2.772v-2.412h-3.996V667h3.996v-11.232c.936-1.944 2.844-3.024 4.176-3.024a6.69 6.69 0 0 1 2.088.36l.252-3.78c-.504-.18-1.188-.288-2.016-.288Zm11.736 0c-5.148 0-9.108 3.96-9.108 9.18s3.96 9.144 9.108 9.144c5.148 0 9.144-3.924 9.144-9.144 0-5.22-3.996-9.18-9.144-9.18Zm0 3.852c2.916 0 5.184 2.304 5.184 5.328 0 2.988-2.268 5.292-5.184 5.292-2.916 0-5.148-2.304-5.148-5.292 0-3.024 2.232-5.328 5.148-5.328Zm32.911-3.852c-2.556 0-4.572 1.44-5.76 2.844-1.116-1.944-2.88-2.844-5.292-2.844-2.736 0-4.5 1.476-5.364 2.664v-2.304h-3.996V667h3.996v-11.808a4.483 4.483 0 0 1 3.996-2.448c2.232 0 3.78 1.62 3.78 4.248V667h4.032v-11.232l-.108-.612c.792-1.332 2.412-2.412 3.996-2.412 2.376 0 3.852 1.62 3.852 4.248V667h4.068v-10.764c0-4.356-2.952-7.2-7.2-7.2Zm19.494-7.236V667h14.868v-4.032h-10.656v-7.164h9.504v-4.032h-9.504v-5.94h10.656V641.8h-14.868Zm28.15 21.492a5.44 5.44 0 0 1-1.368.216c-1.764 0-3.204-1.224-3.204-3.276v-7.02h4.608v-3.816h-4.608v-4.716h-3.996v4.716h-3.384v3.816h3.384v7.2c0 4.356 2.736 6.84 6.624 6.84.756 0 1.584-.144 2.16-.432l-.216-3.528Zm12.776-14.256c-2.232 0-4.32 1.044-5.364 2.736V641.8h-3.996V667h3.996v-11.52c.864-1.512 2.628-2.448 4.392-2.448 2.52 0 4.14 1.728 4.14 4.572V667h4.032v-10.044c0-4.86-2.772-7.92-7.2-7.92Zm28.085 8.388c0-4.716-3.708-8.388-8.46-8.388-5.076 0-9.072 3.96-9.072 9.072 0 5.256 4.068 9.252 9.144 9.252 3.636 0 6.588-1.44 7.884-3.816l-3.204-2.052c-.828 1.368-2.628 2.232-4.608 2.232-2.736 0-4.608-1.584-5.148-4.212h13.32c.108-.504.144-1.62.144-2.088Zm-13.392-1.332c.612-2.196 2.34-3.42 4.716-3.42 2.412 0 4.14 1.44 4.464 3.42h-9.18Zm25.225-7.056c-1.62 0-3.6 1.08-4.5 2.772v-2.412h-3.996V667h3.996v-11.232c.936-1.944 2.844-3.024 4.176-3.024a6.69 6.69 0 0 1 2.088.36l.252-3.78c-.504-.18-1.188-.288-2.016-.288Zm20.159 8.388c0-4.716-3.708-8.388-8.46-8.388-5.076 0-9.072 3.96-9.072 9.072 0 5.256 4.068 9.252 9.144 9.252 3.636 0 6.588-1.44 7.884-3.816l-3.204-2.052c-.828 1.368-2.628 2.232-4.608 2.232-2.736 0-4.608-1.584-5.148-4.212h13.32c.108-.504.144-1.62.144-2.088Zm-13.392-1.332c.612-2.196 2.34-3.42 4.716-3.42 2.412 0 4.14 1.44 4.464 3.42h-9.18Zm29.293-6.696v11.484c-.9 1.512-2.628 2.484-4.392 2.484-2.52 0-4.176-1.728-4.176-4.572v-9.396h-3.996v10.008c0 4.896 2.772 7.956 7.2 7.956 2.196 0 4.32-1.044 5.364-2.736V667h4.032v-17.604h-4.032Zm28.66-.36c-2.556 0-4.572 1.44-5.76 2.844-1.116-1.944-2.88-2.844-5.292-2.844-2.736 0-4.5 1.476-5.364 2.664v-2.304h-3.996V667h3.996v-11.808a4.483 4.483 0 0 1 3.996-2.448c2.232 0 3.78 1.62 3.78 4.248V667h4.032v-11.232l-.108-.612c.792-1.332 2.412-2.412 3.996-2.412 2.376 0 3.852 1.62 3.852 4.248V667h4.068v-10.764c0-4.356-2.952-7.2-7.2-7.2Zm29.539 14.256a5.44 5.44 0 0 1-1.368.216c-1.764 0-3.204-1.224-3.204-3.276v-7.02h4.608v-3.816h-4.608v-4.716h-3.996v4.716h-3.384v3.816h3.384v7.2c0 4.356 2.736 6.84 6.624 6.84.756 0 1.584-.144 2.16-.432l-.216-3.528ZM650.601 667l-6.444-9.108 6.012-8.496h-4.752l-3.672 5.148-3.636-5.148h-4.86l6.084 8.532-6.444 9.072h4.788l4.032-5.688 4.068 5.688h4.824Z" fill="#fff"/></g><defs><clipPath id="a"><path fill="#fff" d="M0 0h1970v1377H0z"/></clipPath></defs></svg>